<?xml version="1.0" encoding="UTF-8"?>
<!DOCTYPE svg PUBLIC "-//W3C//DTD SVG 1.1//EN" "http://www.w3.org/Graphics/SVG/1.1/DTD/svg11.dtd">
<!-- Creator: CorelDRAW X7 -->
<svg xmlns="http://www.w3.org/2000/svg" xml:space="preserve" width="0.555551in" height="0.555551in" version="1.1" style="shape-rendering:geometricPrecision; text-rendering:geometricPrecision; image-rendering:optimizeQuality; fill-rule:evenodd; clip-rule:evenodd"
viewBox="0 0 556 556"
 xmlns:xlink="http://www.w3.org/1999/xlink">
 <defs>
  <style type="text/css">
   <![CDATA[
    .fil0 {fill:#E8762A}
   ]]>
  </style>
 </defs>
 <g id="Слой_x0020_1">
  <metadata id="CorelCorpID_0Corel-Layer"/>
  <path class="fil0" d="M358 426c-17,16 -34,1 -47,-11 -10,-10 -23,-23 -35,-32 -29,31 -53,68 -78,48 -29,-25 28,-62 42,-83 -14,-3 -39,-11 -50,-20 -12,-9 -14,-29 0,-39 17,-12 28,1 48,8 75,24 103,-44 126,-4 18,33 -46,48 -53,54 30,29 70,55 47,79zm-85 -195c44,-1 44,-71 -4,-68 -45,3 -41,68 4,68zm-84 -48c8,-50 56,-75 96,-68 48,9 74,53 69,93 -16,110 -182,85 -165,-25zm89 -148c-134,0 -243,109 -243,243 0,134 109,243 243,243 134,0 243,-109 243,-243 0,-134 -109,-243 -243,-243z"/>
 </g>
</svg>
