<?xml version="1.0" encoding="UTF-8"?>
<!DOCTYPE svg PUBLIC "-//W3C//DTD SVG 1.1//EN" "http://www.w3.org/Graphics/SVG/1.1/DTD/svg11.dtd">
<!-- Creator: CorelDRAW X7 -->
<svg xmlns="http://www.w3.org/2000/svg" xml:space="preserve" width="0.555551in" height="0.555551in" version="1.1" style="shape-rendering:geometricPrecision; text-rendering:geometricPrecision; image-rendering:optimizeQuality; fill-rule:evenodd; clip-rule:evenodd"
viewBox="0 0 556 556"
 xmlns:xlink="http://www.w3.org/1999/xlink">
 <defs>
  <style type="text/css">
   <![CDATA[
    .fil0 {fill:#DB4B4B}
   ]]>
  </style>
 </defs>
 <g id="Слой_x0020_1">
  <metadata id="CorelCorpID_0Corel-Layer"/>
  <path class="fil0" d="M432 207c-16,0 -33,0 -49,0 -7,0 -6,-1 -6,5 0,15 0,30 0,45 0,1 0,2 0,3 -4,0 -7,0 -10,0 0,-2 0,-5 0,-7 0,-14 0,-29 0,-43 0,-2 -1,-3 -4,-3 -15,0 -30,0 -46,0 -1,0 -2,0 -4,0 0,-5 0,-9 0,-13 18,0 35,0 53,0 0,-18 0,-35 0,-52 4,0 7,0 11,0 0,2 0,3 0,4 0,15 0,29 0,44 0,3 1,4 3,3 17,0 34,0 50,0 1,0 1,0 2,0 0,5 0,9 0,14zm-186 112c-13,-6 -27,-8 -41,-6 -14,2 -27,7 -38,17 -17,16 -16,38 1,53 12,10 27,14 42,14 1,0 2,0 3,0 17,-1 32,-6 45,-18 10,-10 15,-22 10,-36 -3,-12 -12,-19 -22,-24zm-4 -86c4,-7 5,-15 5,-22 -1,-19 -7,-36 -21,-49 -7,-6 -15,-9 -24,-9 -12,2 -20,9 -24,19 -5,11 -6,23 -4,34 3,16 10,29 23,39 17,12 37,7 45,-12zm26 165c-12,9 -26,13 -41,16 -22,3 -43,2 -63,-4 -15,-5 -27,-13 -35,-27 -10,-19 -8,-50 18,-66 14,-8 29,-12 44,-14 8,-1 17,-1 25,-2 1,0 1,0 2,0 0,-5 -2,-9 -6,-12 -3,-2 -4,-5 -4,-9 0,-4 0,-9 0,-14 -5,0 -10,0 -15,0 -13,-1 -25,-5 -36,-14 -8,-7 -12,-15 -15,-25 -3,-14 -3,-28 1,-41 5,-16 16,-26 30,-34 15,-8 32,-12 50,-12 23,0 46,0 69,0 0,0 1,0 2,0 0,3 -1,5 -4,5 -4,2 -9,3 -14,4 -5,1 -9,1 -14,2 -1,1 -2,1 -3,2 1,1 2,2 2,2 11,5 17,14 19,26 2,10 2,21 1,32 -2,12 -8,22 -16,30 -5,4 -10,8 -15,12 0,1 -1,1 -1,1 -9,8 -9,16 -1,24 8,7 15,13 23,19 8,8 16,17 20,27 8,22 2,56 -23,72zm10 -365c-134,0 -243,109 -243,245 0,135 109,245 243,245 134,0 243,-110 243,-245 0,-136 -109,-245 -243,-245z"/>
 </g>
</svg>
