<?xml version="1.0" encoding="UTF-8"?>
<!DOCTYPE svg PUBLIC "-//W3C//DTD SVG 1.1//EN" "http://www.w3.org/Graphics/SVG/1.1/DTD/svg11.dtd">
<!-- Creator: CorelDRAW X7 -->
<svg xmlns="http://www.w3.org/2000/svg" xml:space="preserve" width="0.555551in" height="0.555551in" version="1.1" style="shape-rendering:geometricPrecision; text-rendering:geometricPrecision; image-rendering:optimizeQuality; fill-rule:evenodd; clip-rule:evenodd"
viewBox="0 0 556 556"
 xmlns:xlink="http://www.w3.org/1999/xlink">
 <defs>
  <style type="text/css">
   <![CDATA[
    .fil0 {fill:#5B5BD4}
   ]]>
  </style>
 </defs>
 <g id="Слой_x0020_1">
  <metadata id="CorelCorpID_0Corel-Layer"/>
  <path class="fil0" d="M162 227l54 0 0 165 -54 0 0 -165zm85 0l55 0 0 24c1,-2 -1,0 1,-2 8,-10 14,-17 27,-22 25,-9 56,-2 73,23 5,9 11,27 11,41l0 101 -54 0 0 -89c0,-43 -35,-42 -49,-28 -4,4 -9,12 -9,19l0 98 -55 0c0,-19 1,-34 1,-52l0 -101c0,-6 -1,-6 -1,-12zm-88 -48l0 -6c0,-33 60,-33 60,-1l0 8c0,16 -16,24 -34,24 -13,0 -26,-12 -26,-25zm-124 99c0,18 3,39 6,53 6,26 16,52 30,74 2,3 3,6 6,9 24,36 57,63 95,83 23,11 63,24 96,24 51,0 70,-5 113,-23 6,-2 13,-6 19,-9 15,-10 37,-26 50,-39l38 -49c19,-32 33,-76 33,-114 0,-44 -5,-78 -24,-114 -12,-24 -19,-35 -35,-54l-15 -15c-36,-36 -97,-69 -169,-69 -46,0 -101,16 -138,43 -7,5 -12,8 -18,14l-23 22c-11,11 -24,30 -32,44 -11,19 -21,44 -26,65 -3,16 -6,37 -6,55z"/>
 </g>
</svg>
