<?xml version="1.0" encoding="UTF-8"?>
<!DOCTYPE svg PUBLIC "-//W3C//DTD SVG 1.1//EN" "http://www.w3.org/Graphics/SVG/1.1/DTD/svg11.dtd">
<!-- Creator: CorelDRAW X7 -->
<svg xmlns="http://www.w3.org/2000/svg" xml:space="preserve" width="0.277772in" height="0.277772in" version="1.1" style="shape-rendering:geometricPrecision; text-rendering:geometricPrecision; image-rendering:optimizeQuality; fill-rule:evenodd; clip-rule:evenodd"
viewBox="0 0 278 278"
 xmlns:xlink="http://www.w3.org/1999/xlink">
 <defs>
  <style type="text/css">
   <![CDATA[
    .fil0 {fill:#fff;fill-rule:nonzero}
   ]]>
  </style>
 </defs>
 <g id="Слой_x0020_1">
  <metadata id="CorelCorpID_0Corel-Layer"/>
  <path class="fil0" d="M248 161c1,4 3,7 4,12 1,4 1,10 1,15 0,18 -7,35 -19,47 -12,12 -29,20 -48,20 -5,0 -11,-1 -16,-2 -4,-1 -9,-3 -13,-5 -2,1 -4,1 -7,1 -3,1 -7,1 -10,1 -30,0 -58,-13 -78,-32 -19,-20 -32,-48 -32,-78 0,-4 1,-7 1,-11 0,-3 1,-5 1,-8 -2,-4 -4,-9 -5,-13 -2,-6 -3,-12 -3,-18 0,-19 8,-35 20,-48 12,-12 29,-19 47,-19 7,0 13,1 19,2 5,2 10,4 14,6 2,0 5,0 7,0 3,-1 6,-1 9,-1 30,0 58,13 78,32 19,20 32,48 32,78 0,4 -1,8 -1,12 0,3 -1,6 -1,9zm-135 -84c-8,3 -14,8 -19,13 -4,6 -6,12 -6,20 0,7 2,13 6,19 4,5 10,9 16,12 7,2 16,5 25,7 8,2 14,3 18,4 4,2 7,3 10,6 2,2 4,5 4,9 0,5 -3,9 -7,12 -5,3 -12,5 -20,5 -5,0 -10,-1 -13,-3 -4,-1 -6,-3 -8,-6 -2,-2 -4,-6 -6,-10 -1,-3 -3,-6 -5,-8 -3,-2 -5,-3 -9,-3 -4,0 -7,2 -10,4 -2,3 -4,6 -4,9 0,6 2,11 6,17 4,6 10,11 16,14 9,5 21,7 34,7 12,0 22,-1 30,-5 8,-3 15,-8 19,-15 5,-6 7,-13 7,-21 0,-6 -1,-12 -4,-17 -3,-4 -6,-8 -11,-11 -4,-3 -10,-5 -16,-7 -6,-2 -13,-4 -21,-6 -6,-1 -11,-2 -13,-3 -3,-1 -5,-2 -8,-3 -2,-1 -4,-3 -5,-4 -2,-2 -2,-4 -2,-6 0,-3 2,-6 6,-9 4,-3 9,-4 16,-4 7,0 13,1 16,4 3,2 6,6 8,10 2,4 4,6 6,8 2,1 5,2 8,2 4,0 7,-1 10,-4 3,-2 4,-6 4,-9 0,-3 -1,-7 -3,-11 -2,-3 -5,-7 -9,-10 -4,-3 -10,-6 -16,-8 -6,-2 -14,-3 -22,-3 -11,0 -20,2 -28,4zm122 99c0,-3 -2,-7 -4,-11l-1 -2 1 -3c1,-3 1,-7 1,-10 1,-3 1,-6 1,-10 0,-26 -10,-49 -27,-66 -17,-17 -40,-27 -66,-27 -3,0 -5,0 -8,0 -3,1 -5,1 -8,1l-3 1 -3 -2c-4,-2 -8,-4 -13,-6 -4,-1 -9,-1 -14,-1 -13,0 -26,5 -35,14 -9,9 -15,22 -15,36 0,5 1,9 2,13 1,5 3,9 5,12l2 3 -1 3c-1,3 -1,6 -1,10 -1,3 -1,6 -1,9 0,26 10,49 27,66 17,17 40,27 66,27 3,0 6,0 9,0 2,-1 5,-1 8,-2l3 0 3 1c3,2 7,4 11,5 4,1 8,1 12,1 14,0 27,-5 36,-15 9,-9 15,-21 15,-35 0,-4 -1,-8 -2,-12z"/>
 </g>
</svg>
