<?xml version="1.0" encoding="UTF-8"?>
<!DOCTYPE svg PUBLIC "-//W3C//DTD SVG 1.1//EN" "http://www.w3.org/Graphics/SVG/1.1/DTD/svg11.dtd">
<!-- Creator: CorelDRAW X7 -->
<svg xmlns="http://www.w3.org/2000/svg" xml:space="preserve" width="0.277772in" height="0.277772in" version="1.1" style="shape-rendering:geometricPrecision; text-rendering:geometricPrecision; image-rendering:optimizeQuality; fill-rule:evenodd; clip-rule:evenodd"
viewBox="0 0 278 278"
 xmlns:xlink="http://www.w3.org/1999/xlink">
 <defs>
  <style type="text/css">
   <![CDATA[
    .fil0 {fill:black}
   ]]>
  </style>
 </defs>
 <g id="Слой_x0020_1">
  <metadata id="CorelCorpID_0Corel-Layer"/>
  <path class="fil0" d="M254 77l-56 29 0 -49c0,-5 -4,-8 -9,-8l-173 0c-5,0 -9,3 -9,8l0 164c0,4 4,8 9,8l173 0c5,0 9,-4 9,-8l0 -47 56 29c7,4 17,-1 17,-10l0 -106c0,-9 -10,-14 -17,-10zm-122 57l-44 -28c-4,-2 -9,1 -9,5l0 55c0,5 5,8 9,5l44 -27c4,-2 4,-8 0,-10zm-31 55c-27,0 -49,-22 -49,-49 0,-27 22,-49 49,-49 27,0 50,22 50,49 0,27 -23,49 -50,49z"/>
 </g>
</svg>
