<?xml version="1.0" encoding="UTF-8"?>
<!DOCTYPE svg PUBLIC "-//W3C//DTD SVG 1.1//EN" "http://www.w3.org/Graphics/SVG/1.1/DTD/svg11.dtd">
<!-- Creator: CorelDRAW X7 -->
<svg xmlns="http://www.w3.org/2000/svg" xml:space="preserve" width="0.555551in" height="0.555551in" version="1.1" style="shape-rendering:geometricPrecision; text-rendering:geometricPrecision; image-rendering:optimizeQuality; fill-rule:evenodd; clip-rule:evenodd"
viewBox="0 0 556 556"
 xmlns:xlink="http://www.w3.org/1999/xlink">
 <defs>
  <style type="text/css">
   <![CDATA[
    .fil0 {fill:#00A0E3;fill-rule:nonzero}
   ]]>
  </style>
 </defs>
 <g id="Слой_x0020_1">
  <metadata id="CorelCorpID_0Corel-Layer"/>
  <path class="fil0" d="M81 90c-8,0 -14,7 -14,14 0,8 6,14 14,14l47 0c23,58 46,116 69,174l-21 51c-2,4 -2,9 1,13 3,4 7,6 12,6l234 0c8,0 14,-6 14,-14 0,-7 -6,-14 -14,-14l-213 0 12 -29 226 -18c6,0 11,-5 12,-11l28 -122c2,-8 -5,-17 -13,-17l-310 0 -15 -38c-2,-5 -7,-9 -13,-9l-56 0zm96 75l87 0 0 42 -70 0 -17 -42zm115 0l56 0 0 42 -56 0 0 -42zm84 0l81 0 -10 42 -71 0 0 -42zm-171 71l59 0 0 38 -43 3 -16 -41zm87 0l56 0 0 31 -56 4 0 -35zm84 0l65 0 -6 24 -59 5 0 -29zm-136 136c-25,0 -47,21 -47,46 0,26 22,47 47,47 26,0 47,-21 47,-47 0,-25 -21,-46 -47,-46zm132 0c-26,0 -47,21 -47,46 0,26 21,47 47,47 25,0 46,-21 46,-47 0,-25 -21,-46 -46,-46zm-132 28c11,0 19,8 19,18 0,11 -8,19 -19,19 -10,0 -18,-8 -18,-19 0,-10 8,-18 18,-18zm132 0c10,0 18,8 18,18 0,11 -8,19 -18,19 -11,0 -19,-8 -19,-19 0,-10 8,-18 19,-18z" display="inline"/>
 </g>
</svg>
