<?xml version="1.0" encoding="UTF-8"?>
<!DOCTYPE svg PUBLIC "-//W3C//DTD SVG 1.1//EN" "http://www.w3.org/Graphics/SVG/1.1/DTD/svg11.dtd">
<!-- Creator: CorelDRAW X7 -->
<svg xmlns="http://www.w3.org/2000/svg" xml:space="preserve" width="0.555551in" height="0.555551in" version="1.1" style="shape-rendering:geometricPrecision; text-rendering:geometricPrecision; image-rendering:optimizeQuality; fill-rule:evenodd; clip-rule:evenodd"
viewBox="0 0 556 556"
 xmlns:xlink="http://www.w3.org/1999/xlink">
 <defs>
  <style type="text/css">
   <![CDATA[
    .fil0 {fill:black}
   ]]>
  </style>
 </defs>
 <g id="Слой_x0020_1">
  <metadata id="CorelCorpID_0Corel-Layer"/>
  <path class="fil0" d="M531 139c0,0 0,1 0,1l-17 143c-1,10 -6,19 -12,26 -7,6 -16,11 -26,12l0 0 -207 26c-10,1 -20,-1 -28,-7 -8,-5 -15,-12 -18,-22l-49 -129c-1,-1 -1,-2 -2,-3 -1,-1 -1,-3 -1,-4 -1,-1 -1,-2 0,-3l0 0 -21 -55c0,-2 -1,-3 -3,-4 -1,0 -2,-1 -4,0l-64 7c-2,1 -5,0 -7,-2 -2,-1 -4,-4 -4,-7 -1,-3 0,-5 2,-7 2,-3 4,-4 7,-4l64 -8c6,-1 12,1 17,4 5,3 9,8 11,13l20 53 331 -41 0 0 0 0c3,0 5,1 7,2 3,2 4,4 4,7 0,1 1,1 0,2zm-178 79c0,4 0,7 -1,11 -1,3 -2,6 -4,8 -2,2 -4,4 -7,6 -3,1 -6,2 -9,3 -3,0 -6,0 -9,-1 -3,-1 -5,-2 -8,-4 -2,-2 -4,-4 -6,-7 -1,-3 -2,-6 -3,-10 0,-4 0,-8 1,-11 1,-3 2,-6 4,-8 2,-3 4,-5 6,-6 3,-2 6,-3 9,-3 4,0 7,0 10,1 3,0 5,2 8,4 2,2 4,4 6,7 1,3 2,6 3,10zm-14 2c0,-3 0,-5 -1,-7 -1,-1 -2,-3 -3,-4 -1,-1 -2,-1 -3,-2 -2,0 -3,0 -4,0 -2,0 -3,1 -4,1 -1,1 -2,2 -3,3 -1,1 -1,3 -1,5 -1,1 -1,4 0,6 0,3 1,5 1,7 1,1 2,3 3,4 1,1 2,1 3,1 1,1 3,1 4,1 1,0 3,-1 4,-2 1,0 2,-1 3,-2 1,-1 1,-3 1,-5 1,-1 1,-4 0,-6zm44 -27c1,-1 1,-2 2,-2 1,-1 2,-1 3,-2l13 -1 -62 106c-1,1 -2,2 -2,2 -1,1 -2,1 -3,1l-13 2 62 -106zm32 70c1,4 0,8 0,11 -1,3 -3,6 -5,8 -1,3 -4,5 -6,6 -3,2 -6,3 -9,3 -3,0 -6,0 -9,-1 -3,-1 -6,-2 -8,-4 -2,-2 -4,-4 -6,-7 -1,-3 -2,-6 -3,-10 0,-4 0,-7 1,-11 0,-3 2,-6 3,-8 2,-3 4,-4 7,-6 3,-2 6,-2 9,-3 3,0 7,0 9,1 3,1 6,2 8,4 3,2 5,4 6,7 2,3 3,7 3,10zm-13 2c0,-3 -1,-5 -2,-7 0,-1 -1,-3 -2,-4 -1,-1 -2,-1 -4,-2 -1,0 -2,0 -4,0 -1,0 -2,1 -3,1 -2,1 -2,2 -3,3 -1,1 -1,3 -2,5 0,2 0,4 0,6 1,3 1,5 2,7 1,2 1,3 2,4 1,1 3,1 4,2 1,0 2,0 4,0 1,0 2,-1 4,-1 1,-1 2,-2 3,-3 0,-1 1,-3 1,-4 0,-2 0,-4 0,-7zm-101 101c12,-2 24,2 33,9 10,7 16,18 18,31 1,12 -2,24 -10,33l0 0c-7,10 -18,16 -30,18 -13,1 -25,-3 -34,-10l0 0c-9,-7 -16,-18 -17,-30 -2,-13 2,-25 9,-34 8,-9 18,-16 31,-17zm22 24c-6,-4 -13,-6 -20,-5 -7,1 -13,5 -18,10l0 0c-4,5 -6,12 -5,19 1,8 5,14 10,18 5,4 12,6 20,5 7,0 13,-4 17,-9 4,-6 6,-13 6,-20 -1,-7 -5,-13 -10,-18l0 0zm132 -43c12,-2 24,2 33,9l0 0c10,8 16,18 18,31 1,12 -3,24 -10,33l0 0c-7,10 -18,16 -30,18 -13,1 -25,-2 -34,-10l0 0c-9,-7 -16,-18 -17,-30 -2,-13 2,-25 9,-34 7,-9 18,-15 31,-17zm21 24c-5,-4 -12,-6 -19,-5 -7,1 -14,5 -18,10l0 0c-4,5 -6,12 -5,20 1,7 5,13 10,17 5,4 12,6 19,6 8,-1 14,-5 18,-10 4,-6 6,-13 5,-20 0,-7 -4,-13 -10,-18zm-296 -11l-125 15c-3,0 -5,0 -8,-2 -2,-2 -3,-4 -4,-7 0,-3 1,-6 3,-8 1,-2 4,-3 7,-4l125 -15c3,0 5,0 8,2 2,2 3,4 3,7 1,3 0,6 -2,8 -1,2 -4,3 -7,4zm-100 -48c-2,-2 -4,-4 -4,-7 -1,-3 0,-6 2,-8 2,-2 4,-3 7,-4l69 -8c3,0 6,0 8,2 2,2 3,4 4,7 0,3 -1,6 -2,8 -2,2 -4,3 -7,4l-70 8c-2,1 -5,0 -7,-2zm53 -60l-97 12c-3,0 -6,-1 -8,-2 -2,-2 -4,-5 -4,-7 0,-3 1,-6 2,-8 2,-2 4,-4 7,-4l97 -12c3,0 6,0 8,2 2,2 4,4 4,7 0,3 0,6 -2,8 -2,2 -4,3 -7,4zm354 42c4,-4 6,-9 7,-14l15 -129 -312 38 45 122c2,5 5,9 10,12 4,2 9,4 15,3l206 -26c6,0 10,-3 14,-6z"/>
 </g>
</svg>
