<?xml version="1.0" encoding="UTF-8"?>
<!DOCTYPE svg PUBLIC "-//W3C//DTD SVG 1.1//EN" "http://www.w3.org/Graphics/SVG/1.1/DTD/svg11.dtd">
<!-- Creator: CorelDRAW X7 -->
<svg xmlns="http://www.w3.org/2000/svg" xml:space="preserve" width="0.555551in" height="0.555551in" version="1.1" style="shape-rendering:geometricPrecision; text-rendering:geometricPrecision; image-rendering:optimizeQuality; fill-rule:evenodd; clip-rule:evenodd"
viewBox="0 0 556 556"
 xmlns:xlink="http://www.w3.org/1999/xlink">
 <defs>
  <style type="text/css">
   <![CDATA[
    .fil0 {fill:black;fill-rule:nonzero}
   ]]>
  </style>
 </defs>
 <g id="Слой_x0020_1">
  <metadata id="CorelCorpID_0Corel-Layer"/>
  <path class="fil0" d="M117 125c-6,0 -11,5 -11,11 0,7 5,12 11,12l38 0c19,47 38,94 57,141l-17 42c-2,3 -1,7 1,10 2,4 5,6 9,6l191 0c6,0 12,-6 12,-12 0,-6 -6,-11 -12,-11l-174 0 10 -24 184 -15c5,0 9,-4 11,-9l22 -99c2,-7 -4,-14 -11,-14l-252 0 -12 -31c-2,-4 -6,-7 -11,-7l-46 0zm78 61l71 0 0 34 -57 0 -14 -34zm94 0l46 0 0 34 -46 0 0 -34zm69 0l66 0 -8 34 -58 0 0 -34zm-140 57l48 0 0 31 -34 3 -14 -34zm71 0l46 0 0 26 -46 4 0 -30zm69 0l53 0 -5 20 -48 4 0 -24zm-111 111c-21,0 -38,17 -38,38 0,21 17,39 38,39 21,0 38,-18 38,-39 0,-21 -17,-38 -38,-38zm107 0c-21,0 -38,17 -38,38 0,21 17,39 38,39 21,0 38,-18 38,-39 0,-21 -17,-38 -38,-38zm-107 23c9,0 16,7 16,15 0,9 -7,16 -16,16 -8,0 -15,-7 -15,-16 0,-8 7,-15 15,-15zm107 0c9,0 15,7 15,15 0,9 -6,16 -15,16 -8,0 -15,-7 -15,-16 0,-8 7,-15 15,-15z" display="inline"/>
 </g>
</svg>
