<?xml version="1.0" encoding="UTF-8"?>
<!DOCTYPE svg PUBLIC "-//W3C//DTD SVG 1.1//EN" "http://www.w3.org/Graphics/SVG/1.1/DTD/svg11.dtd">
<!-- Creator: CorelDRAW X7 -->
<svg xmlns="http://www.w3.org/2000/svg" xml:space="preserve" width="0.333331in" height="0.333331in" version="1.1" style="shape-rendering:geometricPrecision; text-rendering:geometricPrecision; image-rendering:optimizeQuality; fill-rule:evenodd; clip-rule:evenodd"
viewBox="0 0 333 333"
 xmlns:xlink="http://www.w3.org/1999/xlink">
 <defs>
  <style type="text/css">
   <![CDATA[
    .fil0 {fill:#666666}
   ]]>
  </style>
 </defs>
 <g id="Слой_x0020_1">
  <metadata id="CorelCorpID_0Corel-Layer"/>
  <path class="fil0" d="M175 101l-3 159 29 0 3 -159 -29 0zm-19 0l-29 0 3 159 29 0 -3 -159zm67 174l0 0c0,1 -1,2 -2,2l-112 0c0,0 -1,-1 -1,-2l-6 -174 -29 0 6 175c0,16 14,30 30,30l112 0c17,0 30,-14 30,-30l6 -175 -29 0 -5 174zm-5 -220l-6 -27 -94 0 -6 27 -56 0 0 29 222 0 0 -29 -60 0z"/>
 </g>
</svg>
