<?xml version="1.0" encoding="UTF-8"?>
<!DOCTYPE svg PUBLIC "-//W3C//DTD SVG 1.1//EN" "http://www.w3.org/Graphics/SVG/1.1/DTD/svg11.dtd">
<!-- Creator: CorelDRAW X7 -->
<svg xmlns="http://www.w3.org/2000/svg" xml:space="preserve" width="0.333331in" height="0.333331in" version="1.1" style="shape-rendering:geometricPrecision; text-rendering:geometricPrecision; image-rendering:optimizeQuality; fill-rule:evenodd; clip-rule:evenodd"
viewBox="0 0 333 333"
 xmlns:xlink="http://www.w3.org/1999/xlink">
 <defs>
  <style type="text/css">
   <![CDATA[
    .fil0 {fill:#fff;fill-rule:nonzero}
   ]]>
  </style>
 </defs>
 <g id="Слой_x0020_1">
  <metadata id="CorelCorpID_0Corel-Layer"/>
  <path class="fil0" d="M154 42c27,0 52,11 69,29 18,17 29,42 29,69 0,27 -11,51 -29,69 -1,1 -3,2 -4,4l58 66 -14 12 -59 -67c-15,8 -32,13 -50,13 -27,0 -51,-11 -69,-28 -17,-18 -28,-42 -28,-69 0,-27 11,-52 28,-69 18,-18 42,-29 69,-29zm-8 33c20,0 38,8 51,21 13,13 21,32 21,52l-19 0c0,-15 -6,-29 -15,-38l0 0c-10,-10 -23,-16 -38,-16l0 -19zm64 9c-14,-14 -34,-23 -56,-23 -22,0 -41,9 -56,23 -14,14 -23,34 -23,56 0,22 9,41 23,56 15,14 34,23 56,23 22,0 42,-9 56,-23 14,-15 23,-34 23,-56 0,-22 -9,-42 -23,-56z"/>
 </g>
</svg>
