<?xml version="1.0" encoding="UTF-8"?>
<!DOCTYPE svg PUBLIC "-//W3C//DTD SVG 1.0//EN" "http://www.w3.org/TR/2001/REC-SVG-20010904/DTD/svg10.dtd">
<!-- Creator: CorelDRAW X8 -->
<svg xmlns="http://www.w3.org/2000/svg" xml:space="preserve" width="28px" height="26px" version="1.0" style="shape-rendering:geometricPrecision; text-rendering:geometricPrecision; image-rendering:optimizeQuality; fill-rule:evenodd; clip-rule:evenodd"
viewBox="0 0 2800028 2580080"
 xmlns:xlink="http://www.w3.org/1999/xlink">
 <defs>
  <style type="text/css">
   <![CDATA[
    .fil0 {fill:white;fill-rule:nonzero}
   ]]>
  </style>
 </defs>
 <g id="Слой_x0020_1">
  <metadata id="CorelCorpID_0Corel-Layer"/>
  <path class="fil0" d="M2358175 1848146c-15109,6293 -30417,12048 -45866,17264 29084,16980 55816,37702 79543,61486 69367,69508 112228,165039 112228,269840 0,104943 -42890,200389 -112228,269869 -69933,70075 -165833,113475 -270946,113475l-1441812 0c-105113,0 -201013,-43400 -270946,-113475 -69338,-69480 -112228,-164926 -112228,-269869 0,-104801 42861,-200332 112228,-269840 23727,-23755 50430,-44506 79458,-61458 -105538,-35888 -200332,-95928 -277806,-173572 -129520,-129746 -209800,-308563 -209800,-505408 0,-25484 3260,-52500 9610,-80507l5102 -21459c9270,-33195 22792,-64944 40509,-94426l173118 -289088c-4308,-22791 -6548,-46235 -6548,-70132 0,-105027 42975,-200445 112256,-269840 69934,-70075 165834,-113475 270946,-113475l436921 0c19418,-50629 49353,-96183 87140,-134056 69934,-70075 165805,-113475 270974,-113475 105170,0 200984,43400 270918,113475 37787,37873 67722,83427 87140,134056l436921 0c105112,0 201012,43400 270946,113475 69281,69395 112256,164813 112256,269840 0,23897 -2240,47341 -6548,70132l173118 289088c17717,29510 31409,61373 40509,94454 9751,35038 14740,69395 14740,101938 0,93604 -18879,186102 -54880,273185 -35803,86602 -88020,165436 -154835,232337 -67949,68034 -146755,120732 -232138,156166z"/>
 </g>
</svg>
