<?xml version="1.0" encoding="UTF-8"?>
<!DOCTYPE svg PUBLIC "-//W3C//DTD SVG 1.0//EN" "http://www.w3.org/TR/2001/REC-SVG-20010904/DTD/svg10.dtd">
<!-- Creator: CorelDRAW X8 -->
<svg xmlns="http://www.w3.org/2000/svg" xml:space="preserve" width="26px" height="26px" version="1.0" style="shape-rendering:geometricPrecision; text-rendering:geometricPrecision; image-rendering:optimizeQuality; fill-rule:evenodd; clip-rule:evenodd"
viewBox="0 0 2600000 2600000"
 xmlns:xlink="http://www.w3.org/1999/xlink">
 <defs>
  <style type="text/css">
   <![CDATA[
    .fil0 {fill:#E6E6E6}
    .fil1 {fill:#333333;fill-rule:nonzero}
   ]]>
  </style>
 </defs>
 <g id="Слой_x0020_1">
  <metadata id="CorelCorpID_0Corel-Layer"/>
  <path class="fil0" d="M2253350 99978l-1906672 0c-67777,0 -129430,27638 -174161,72142l-397 397c-44504,44731 -72142,106384 -72142,174161l0 1906672c0,67777 27638,129402 72142,174133l397 397c44731,44504 106384,72142 174161,72142l1906672 0c67720,0 129402,-27808 174133,-72539 44816,-44532 72539,-106271 72539,-174133l0 -1906672c0,-67862 -27723,-129629 -72341,-174359 -44929,-44533 -106611,-72341 -174331,-72341zm0 -99978l-1906672 0c-190687,0 -346678,155991 -346678,346678l0 1906672c0,190659 155991,346650 346678,346650l1906672 0c190687,0 346650,-155991 346650,-346650l0 -1906672c0,-190687 -155963,-346678 -346650,-346678z"/>
  <path class="fil1" d="M1372312 772641c37729,-45893 105534,-52469 151427,-14740 45893,37729 52498,105563 14769,151456l-321705 390643 321705 390643c37729,45893 31124,113727 -14769,151456 -45893,37729 -113698,31153 -151427,-14740l-376810 -457570c-33223,-38891 -34810,-97228 -1191,-138132l378001 -459016z"/>
 </g>
</svg>
