<?xml version="1.0" encoding="UTF-8"?>
<!DOCTYPE svg PUBLIC "-//W3C//DTD SVG 1.1//EN" "http://www.w3.org/Graphics/SVG/1.1/DTD/svg11.dtd">
<!-- Creator: CorelDRAW X7 -->
<svg xmlns="http://www.w3.org/2000/svg" xml:space="preserve" width="0.333331in" height="0.333331in" version="1.1" style="shape-rendering:geometricPrecision; text-rendering:geometricPrecision; image-rendering:optimizeQuality; fill-rule:evenodd; clip-rule:evenodd"
viewBox="0 0 333 333"
 xmlns:xlink="http://www.w3.org/1999/xlink">
 <defs>
  <style type="text/css">
   <![CDATA[
    .fil0 {fill:#333333}
   ]]>
  </style>
 </defs>
 <g id="Слой_x0020_1">
  <metadata id="CorelCorpID_0Corel-Layer"/>
  <path class="fil0" d="M122 205l0 0c-1,0 -3,-1 -4,-1 -5,0 -9,3 -11,8l-13 36 0 0c-2,6 1,12 7,14 1,1 2,1 3,1 0,0 0,0 0,0 3,0 6,-1 8,-3l0 0c2,-2 3,-3 3,-4l13 -36 0 0c2,-6 0,-12 -6,-15zm200 -4c0,2 -1,4 -2,6 -1,2 -1,3 -3,4l0 0 -1 1 -2 1 0 0 0 0 -66 33 -1 0c0,0 0,1 -1,1 0,0 0,1 -1,1l0 0 0 0 0 0 -31 67c-1,2 -2,4 -4,5 -2,2 -5,4 -9,4 -3,0 -6,-2 -9,-3l0 -1c-2,-1 -3,-4 -4,-6l-52 -159c-1,-3 -1,-6 0,-9 0,-2 2,-5 4,-7 1,-1 3,-2 5,-3 2,-1 4,-2 6,-2 1,0 1,1 2,1 1,0 2,0 3,0l156 53c2,1 5,2 7,4l0 1c1,2 3,5 3,8zm-83 26l50 -25 -130 -43 43 131 24 -51 0 0c2,-2 3,-5 5,-7 2,-2 5,-4 8,-5zm-181 -155l26 27c2,2 5,3 8,3 3,0 6,-1 8,-3l0 0c2,-2 3,-5 3,-8 0,-3 -1,-6 -3,-8l-27 -27c-2,-2 -5,-3 -8,-3 -3,0 -5,1 -7,3 -3,3 -4,6 -4,9 0,3 2,5 4,7zm89 -4l-5 -38 0 0c0,-6 -5,-10 -11,-10 0,0 -1,0 -1,0 -6,1 -10,7 -10,13l5 38c0,6 5,10 11,10 0,0 1,0 1,0l0 0c2,-1 5,-2 7,-4 2,-2 3,-5 3,-9zm30 21l0 0c2,1 4,2 6,2 0,0 0,0 0,0 3,0 6,-1 8,-3 1,-1 1,-2 2,-3l19 -32c2,-3 2,-6 2,-9 -1,-3 -3,-5 -6,-7 -1,-1 -3,-2 -5,-2 -4,0 -8,2 -10,6l-19 33c-4,5 -2,12 3,15zm27 32c1,5 6,8 10,8 0,0 0,0 0,0 2,0 3,0 4,-1l35 -13c2,-1 4,-2 4,-3 3,-3 4,-8 3,-12 -1,-4 -6,-8 -10,-8 -2,0 -3,1 -4,1l-36 14c-5,2 -8,9 -6,14zm-135 26c1,0 1,0 2,0 0,0 0,0 0,0 3,0 6,-1 8,-3 1,-2 2,-5 3,-7l0 0c1,-6 -4,-12 -10,-13l-37 -4c-1,0 -1,0 -2,0 -5,0 -10,4 -11,9 0,6 4,12 10,13l37 5 0 0zm12 26c-2,0 -4,0 -6,1l-32 20c-6,3 -7,10 -4,16 2,3 6,5 9,5 0,0 0,0 0,0 3,0 5,0 6,-2l33 -19c0,-1 1,-2 2,-2 4,-4 4,-10 1,-14 -2,-3 -5,-5 -9,-5z"/>
 </g>
</svg>
