<?xml version="1.0" encoding="UTF-8"?>
<!DOCTYPE svg PUBLIC "-//W3C//DTD SVG 1.0//EN" "http://www.w3.org/TR/2001/REC-SVG-20010904/DTD/svg10.dtd">
<!-- Creator: CorelDRAW X8 -->
<svg xmlns="http://www.w3.org/2000/svg" xml:space="preserve" width="16px" height="15px" version="1.0" style="shape-rendering:geometricPrecision; text-rendering:geometricPrecision; image-rendering:optimizeQuality; fill-rule:evenodd; clip-rule:evenodd"
viewBox="0 0 1600029 1495910"
 xmlns:xlink="http://www.w3.org/1999/xlink">
 <defs>
  <style type="text/css">
   <![CDATA[
    .fil0 {fill:#FFD500}
   ]]>
  </style>
 </defs>
 <g id="Слой_x0020_1">
  <metadata id="CorelCorpID_0Corel-Layer"/>
  <path class="fil0" d="M882639 51489l190921 397190 445884 54798c50233,5961 86004,50661 79900,99754 -2967,23704 -15119,44072 -32548,58135l-323623 296723 84465 431535c9499,48522 -23077,95389 -72712,104660 -21765,4051 -43245,228 -61244,-9470l-393739 -211888 -393796 211888c-44300,23819 -99982,7987 -124314,-35344 -10669,-19026 -13550,-40192 -9642,-59989l84493 -431392 -327873 -300546c-36827,-33860 -38567,-90483 -3965,-126397 15261,-15888 35086,-25074 55568,-27527l0 -142 445826 -54798 190922 -397190c21365,-44643 75764,-63926 121433,-43074 20196,9214 35343,24789 44044,43074z"/>
 </g>
</svg>
