<?xml version="1.0" encoding="UTF-8"?>
<!DOCTYPE svg PUBLIC "-//W3C//DTD SVG 1.0//EN" "http://www.w3.org/TR/2001/REC-SVG-20010904/DTD/svg10.dtd">
<!-- Creator: CorelDRAW X8 -->
<svg xmlns="http://www.w3.org/2000/svg" xml:space="preserve" width="16px" height="15px" version="1.0" style="shape-rendering:geometricPrecision; text-rendering:geometricPrecision; image-rendering:optimizeQuality; fill-rule:evenodd; clip-rule:evenodd"
viewBox="0 0 1600029 1495882"
 xmlns:xlink="http://www.w3.org/1999/xlink">
 <defs>
  <style type="text/css">
   <![CDATA[
    .fil0 {fill:#E6E6E6}
    .fil1 {fill:#FFD500}
   ]]>
  </style>
 </defs>
 <g id="Слой_x0020_1">
  <metadata id="CorelCorpID_0Corel-Layer"/>
  <path class="fil0" d="M882639 51460l190921 397219 445884 54769c50262,5962 86004,50661 79900,99754 -2967,23705 -15119,44101 -32548,58164l-323623 296694 84465 431535c9499,48522 -23077,95390 -72712,104661 -21765,4050 -43245,228 -61244,-9471l-393768 -211888 0 -1272897c12980,0 26158,2681 38681,8387 20196,9213 35343,24788 44044,43073z"/>
  <path class="fil1" d="M80414 503448l0 0zm719500 769449l0 -1272897c-34344,29 -67234,19055 -82724,51460l-190922 397219 -445854 54912c-20482,2453 -40307,11667 -55568,27527 -34602,35942 -32862,92565 3965,126425l327873 300517 -84464 431393c-3937,19796 -1056,40962 9613,59989 24332,43330 80014,59162 124314,35343l393767 -211888z"/>
 </g>
</svg>
