<?xml version="1.0" encoding="UTF-8"?>
<!DOCTYPE svg PUBLIC "-//W3C//DTD SVG 1.1//EN" "http://www.w3.org/Graphics/SVG/1.1/DTD/svg11.dtd">
<!-- Creator: CorelDRAW X7 -->
<svg xmlns="http://www.w3.org/2000/svg" xml:space="preserve" width="0.555551in" height="0.555551in" version="1.1" style="shape-rendering:geometricPrecision; text-rendering:geometricPrecision; image-rendering:optimizeQuality; fill-rule:evenodd; clip-rule:evenodd"
viewBox="0 0 556 556"
 xmlns:xlink="http://www.w3.org/1999/xlink">
 <defs>
  <style type="text/css">
   <![CDATA[
    .fil0 {fill:#00a0e3}
   ]]>
  </style>
 </defs>
 <g id="Слой_x0020_1">
  <metadata id="CorelCorpID_0Corel-Layer"/>
  <path class="fil0" d="M311 388c3,2 5,-2 6,-7 5,-13 8,-20 18,-31 1,-2 2,-3 2,-4l99 100c-17,11 -46,18 -57,19 -128,11 -299,-185 -270,-309 3,-12 13,-39 26,-54l86 110c-2,1 -3,2 -4,3 -13,8 -20,9 -34,12 -5,2 -8,3 -7,6 28,62 78,119 135,155zm-82 -183c6,-6 8,-14 5,-23 -6,-15 -56,-79 -65,-87 -9,-7 -18,-6 -25,-1l85 111zm117 134c7,-5 15,-6 23,-1 14,7 71,65 77,76 6,9 4,18 -2,25l-98 -100z"/>
 </g>
</svg>
