<?xml version="1.0" encoding="UTF-8"?>
<!DOCTYPE svg PUBLIC "-//W3C//DTD SVG 1.1//EN" "http://www.w3.org/Graphics/SVG/1.1/DTD/svg11.dtd">
<!-- Creator: CorelDRAW X7 -->
<svg xmlns="http://www.w3.org/2000/svg" xml:space="preserve" width="0.444441in" height="0.444441in" version="1.1" style="shape-rendering:geometricPrecision; text-rendering:geometricPrecision; image-rendering:optimizeQuality; fill-rule:evenodd; clip-rule:evenodd"
viewBox="0 0 444 444"
 xmlns:xlink="http://www.w3.org/1999/xlink">
 <defs>
  <style type="text/css">
   <![CDATA[
    .fil0 {fill:#0290CC;fill-rule:nonzero}
   ]]>
  </style>
 </defs>
 <g id="Слой_x0020_1">
  <metadata id="CorelCorpID_0Corel-Layer"/>
  <path class="fil0" d="M56 93c0,0 43,74 170,77l0 -73c0,-6 4,-10 9,-10 3,0 5,1 7,2l161 126c4,3 5,9 1,13 0,1 -1,1 -1,2l-162 126c-4,3 -10,2 -13,-2 -2,-2 -2,-4 -2,-6l0 -74c-40,-1 -178,-14 -188,-175 0,-6 4,-10 9,-11 4,0 7,2 9,5zm179 97c-92,0 -146,-35 -173,-61 26,130 161,126 172,125 0,0 1,0 1,0 6,0 10,5 10,10l0 64 136 -106 -136 -105 0 63c0,6 -4,10 -10,10z"/>
 </g>
</svg>
