<?xml version="1.0" encoding="UTF-8"?>
<!DOCTYPE svg PUBLIC "-//W3C//DTD SVG 1.1//EN" "http://www.w3.org/Graphics/SVG/1.1/DTD/svg11.dtd">
<!-- Creator: CorelDRAW X7 -->
<svg xmlns="http://www.w3.org/2000/svg" xml:space="preserve" width="0.444441in" height="0.444441in" version="1.1" style="shape-rendering:geometricPrecision; text-rendering:geometricPrecision; image-rendering:optimizeQuality; fill-rule:evenodd; clip-rule:evenodd"
viewBox="0 0 444 444"
 xmlns:xlink="http://www.w3.org/1999/xlink">
 <defs>
  <style type="text/css">
   <![CDATA[
    .fil0 {fill:#fff}
   ]]>
  </style>
 </defs>
 <g id="Слой_x0020_1">
  <metadata id="CorelCorpID_0Corel-Layer"/>
  <path class="fil0" d="M397 259l-2 -6c-2,-8 -11,-12 -19,-10l-156 51c-2,0 -3,1 -4,2 -7,-9 -16,-15 -28,-18 0,-1 0,-3 -1,-5l-56 -172c-2,-8 -11,-16 -19,-19l-44 -12c-8,-3 -17,2 -19,10l-2 6c-2,8 3,17 11,19l24 8c9,2 17,11 20,19l48 147c1,2 1,4 2,6 -13,8 -22,22 -23,38 -2,27 19,50 46,52 26,2 50,-18 52,-45 1,0 3,0 4,-1l156 -50c8,-3 13,-12 10,-20zm-158 -120c2,6 7,9 13,7l1 -1c6,-1 8,-7 7,-13l-3 -8c-2,-5 -7,-8 -13,-6l-1 0c-6,2 -8,8 -7,13l3 8zm-34 121c3,8 11,12 19,10l126 -41c8,-2 13,-11 10,-19l-33 -103c-2,-8 -11,-12 -19,-10l-27 9c-8,2 -12,11 -10,19l4 11c3,8 -2,17 -10,20l-16 5c-8,2 -17,-2 -20,-10l-3 -11c-3,-8 -11,-13 -20,-10l-24 8c-8,2 -13,11 -10,19l33 103zm-28 88c-12,-1 -21,-11 -20,-23 1,-12 11,-21 22,-20 12,1 21,11 20,23 -1,11 -11,20 -22,20z"/>
 </g>
</svg>
