<?xml version="1.0" encoding="UTF-8"?>
<!DOCTYPE svg PUBLIC "-//W3C//DTD SVG 1.1//EN" "http://www.w3.org/Graphics/SVG/1.1/DTD/svg11.dtd">
<!-- Creator: CorelDRAW X7 -->
<svg xmlns="http://www.w3.org/2000/svg" xml:space="preserve" width="0.444441in" height="0.444441in" version="1.1" style="shape-rendering:geometricPrecision; text-rendering:geometricPrecision; image-rendering:optimizeQuality; fill-rule:evenodd; clip-rule:evenodd"
viewBox="0 0 444 444"
 xmlns:xlink="http://www.w3.org/1999/xlink">
 <defs>
  <style type="text/css">
   <![CDATA[
    .fil0 {fill:black}
   ]]>
  </style>
 </defs>
 <g id="Слой_x0020_1">
  <metadata id="CorelCorpID_0Corel-Layer"/>
  <path class="fil0" d="M194 258c-8,-3 -15,-8 -21,-14 -12,-12 -20,-30 -20,-49 0,-19 8,-36 20,-48 13,-13 30,-21 49,-21 19,0 37,8 49,21 13,12 20,29 20,48 0,19 -7,37 -20,49 -6,6 -13,11 -20,14 14,4 28,10 40,19 16,12 29,28 38,48 12,-13 21,-27 28,-42 9,-19 13,-40 13,-61 0,-41 -17,-77 -43,-104 -27,-27 -64,-44 -105,-44 -41,0 -77,17 -104,44 -27,27 -44,63 -44,104 0,21 5,42 13,61 7,15 17,29 29,42 8,-20 21,-36 38,-48 11,-9 25,-15 40,-19zm-74 105l-6 -5 -6 -5 0 0c-18,-16 -32,-35 -42,-56 -11,-23 -17,-48 -17,-75 0,-48 19,-91 51,-122 31,-32 74,-51 122,-51 48,0 91,19 123,51 31,31 51,74 51,122 0,27 -6,52 -17,75 -10,21 -25,40 -43,56l1 0 -5 4 0 0 -1 1 0 0 -1 0 -6 5 -9 8 -1 -2c-11,7 -22,13 -34,17 -19,7 -38,10 -58,10 -20,0 -39,-3 -57,-10 -12,-4 -24,-10 -35,-17l0 2 -10 -8zm188 -20c-6,-18 -16,-32 -30,-43 -15,-12 -35,-19 -56,-19 -21,0 -41,7 -56,19 -13,11 -24,25 -29,43 11,8 23,14 36,19 16,5 32,8 49,8 17,0 34,-3 49,-8 13,-5 25,-11 37,-19zm-86 -191c-12,0 -23,5 -30,13 -8,8 -13,18 -13,30 0,12 5,23 13,31 7,8 18,13 30,13 12,0 23,-5 31,-13 8,-8 13,-19 13,-31 0,-12 -5,-22 -13,-30 -8,-8 -19,-13 -31,-13z"/>
 </g>
</svg>
