<?xml version="1.0" encoding="UTF-8"?>
<!DOCTYPE svg PUBLIC "-//W3C//DTD SVG 1.1//EN" "http://www.w3.org/Graphics/SVG/1.1/DTD/svg11.dtd">
<!-- Creator: CorelDRAW X7 -->
<svg xmlns="http://www.w3.org/2000/svg" xml:space="preserve" width="0.444441in" height="0.444441in" version="1.1" style="shape-rendering:geometricPrecision; text-rendering:geometricPrecision; image-rendering:optimizeQuality; fill-rule:evenodd; clip-rule:evenodd"
viewBox="0 0 444 444"
 xmlns:xlink="http://www.w3.org/1999/xlink">
 <defs>
  <style type="text/css">
   <![CDATA[
    .fil0 {fill:black}
   ]]>
  </style>
 </defs>
 <g id="Слой_x0020_1">
  <metadata id="CorelCorpID_0Corel-Layer"/>
  <path class="fil0" d="M120 363l-6 -5 -6 -5 0 0c-18,-16 -32,-35 -42,-56 -11,-23 -17,-48 -17,-75 0,-48 19,-91 51,-122 31,-32 74,-51 122,-51 48,0 91,19 123,51 31,31 51,74 51,122 0,27 -6,52 -17,75 -10,21 -25,40 -43,56l1 0 -5 4 0 0 -1 1 0 0 -1 0 -6 5 -9 8 -1 -2c-11,7 -22,13 -34,17 -19,7 -38,10 -58,10 -20,0 -39,-3 -57,-10 -12,-4 -24,-10 -35,-17l0 2 -10 -8zm109 -81c8,-1 15,-4 19,-8 4,-5 6,-11 6,-18 0,-3 0,-6 -1,-8 -1,-2 -3,-4 -5,-6 -2,-2 -4,-3 -7,-4 -2,-2 -5,-3 -8,-4l-4 48zm-8 -125c-4,1 -8,1 -11,3 -3,1 -6,3 -8,5 -2,2 -3,4 -4,6 -1,2 -1,5 -1,7 0,4 0,6 1,8 1,3 3,5 5,6 2,2 4,4 6,5 3,2 6,3 9,4l3 -44zm14 50c6,1 12,3 17,5 6,3 11,5 15,9 5,3 8,7 11,12 3,5 4,11 4,19 0,7 -1,14 -3,20 -3,7 -6,12 -11,17 -5,5 -11,9 -18,12 -7,4 -14,5 -23,6l-2 17c0,2 -1,4 -2,5 -1,2 -3,3 -6,3l-10 0 2 -26c-9,-1 -18,-3 -26,-7 -8,-4 -15,-9 -21,-14l9 -14c1,-1 2,-2 3,-3 1,0 3,-1 4,-1 2,0 4,1 6,2 2,1 4,3 7,4 2,2 5,4 8,5 4,2 7,3 12,4l4 -53c-5,-2 -11,-4 -16,-6 -6,-2 -11,-5 -15,-8 -5,-4 -8,-8 -11,-13 -3,-6 -4,-13 -4,-21 0,-6 1,-12 4,-17 2,-6 6,-11 10,-16 5,-4 10,-8 17,-11 7,-3 15,-4 23,-5l2 -15c0,-2 1,-3 2,-5 1,-1 3,-2 6,-2l10 0 -2 23c9,2 16,4 22,7 6,4 12,8 16,12l-7 11c-1,1 -2,2 -3,3 -1,1 -3,1 -4,1 -2,0 -3,0 -5,-1 -1,0 -3,-1 -5,-2 -2,-1 -5,-3 -7,-4 -3,-1 -6,-2 -9,-2l-4 49zm-99 135l-6 -4 -5 -4 0 -1c-15,-13 -27,-29 -36,-47 -9,-20 -14,-41 -14,-64 0,-41 16,-77 43,-104 27,-27 63,-43 104,-43 41,0 78,16 105,43 26,27 43,63 43,104 0,23 -5,44 -15,64 -8,18 -20,34 -36,47l0 1 -4 3 0 0 0 0 0 0 -1 1 -5 4 -8 6 0 -1c-10,6 -20,11 -30,15 -15,5 -32,8 -49,8 -17,0 -33,-3 -49,-8 -10,-4 -20,-9 -29,-15l0 1 -8 -6z"/>
 </g>
</svg>
