<?xml version="1.0" encoding="UTF-8"?>
<!DOCTYPE svg PUBLIC "-//W3C//DTD SVG 1.1//EN" "http://www.w3.org/Graphics/SVG/1.1/DTD/svg11.dtd">
<!-- Creator: CorelDRAW X7 -->
<svg xmlns="http://www.w3.org/2000/svg" xml:space="preserve" width="0.333331in" height="0.333331in" version="1.1" style="shape-rendering:geometricPrecision; text-rendering:geometricPrecision; image-rendering:optimizeQuality; fill-rule:evenodd; clip-rule:evenodd"
viewBox="0 0 333 333"
 xmlns:xlink="http://www.w3.org/1999/xlink">
 <defs>
  <style type="text/css">
   <![CDATA[
    .fil0 {fill:#0290CC}
   ]]>
  </style>
 </defs>
 <g id="Слой_x0020_1">
  <metadata id="CorelCorpID_0Corel-Layer"/>
  <path class="fil0" d="M270 123c-10,-2 -33,-2 -67,-3 2,-7 2,-14 2,-26 0,-28 -20,-52 -38,-52 -13,0 -24,10 -24,23 0,16 -5,43 -31,57 -2,1 -7,3 -8,4l0 0c-4,-3 -10,-6 -15,-6l-24 0c-13,0 -23,10 -23,23l0 125c0,13 10,24 23,24l24 0c9,0 17,-6 20,-14 0,0 1,0 1,0 0,0 1,1 2,1 0,0 0,0 0,0 4,1 13,3 32,7 4,1 25,6 46,6l43 0c13,0 22,-5 28,-15 0,-1 2,-4 3,-9 1,-3 2,-8 1,-14 8,-5 11,-14 12,-20 3,-9 2,-16 0,-21 5,-4 9,-11 11,-22 1,-6 0,-13 -3,-18 4,-5 6,-11 6,-17l1 -2c0,-1 0,-1 0,-4 0,-10 -7,-22 -22,-27zm-174 145c0,5 -3,8 -7,8l-24 0c-4,0 -8,-3 -8,-8l0 -125c0,-4 4,-8 8,-8l24 0c4,0 7,4 7,8l0 125zm180 -113c0,4 -2,12 -16,12 -11,0 -15,0 -15,0 -2,0 -4,1 -4,4 0,2 2,3 4,3 0,0 3,0 15,0 12,0 13,10 12,15 -1,6 -3,17 -16,17 -14,0 -19,0 -19,0 -2,0 -4,1 -4,4 0,2 2,4 4,4 0,0 9,0 15,0 14,0 12,10 10,16 -2,7 -4,15 -20,15 -6,0 -13,0 -13,0 -2,0 -4,2 -4,4 0,2 2,4 4,4 0,0 6,0 12,0 9,0 9,8 8,11 -1,3 -2,5 -2,5 -2,4 -6,7 -14,7l-43 0c-21,0 -42,-5 -43,-5 -32,-7 -34,-8 -36,-9 0,0 -7,-1 -7,-6l0 -108c0,-4 3,-7 6,-9 1,0 2,0 2,0 36,-15 47,-47 47,-74 0,-4 3,-8 8,-8 8,0 23,17 23,37 0,19 -1,22 -8,41 78,0 78,2 85,3 8,3 9,10 9,12 0,3 0,3 0,5z"/>
 </g>
</svg>
