<?xml version="1.0" encoding="UTF-8"?>
<!DOCTYPE svg PUBLIC "-//W3C//DTD SVG 1.1//EN" "http://www.w3.org/Graphics/SVG/1.1/DTD/svg11.dtd">
<!-- Creator: CorelDRAW X7 -->
<svg xmlns="http://www.w3.org/2000/svg" xml:space="preserve" width="0.555551in" height="0.555551in" version="1.1" style="shape-rendering:geometricPrecision; text-rendering:geometricPrecision; image-rendering:optimizeQuality; fill-rule:evenodd; clip-rule:evenodd"
viewBox="0 0 556 556"
 xmlns:xlink="http://www.w3.org/1999/xlink">
 <defs>
  <style type="text/css">
   <![CDATA[
    .fil0 {fill:#666666}
   ]]>
  </style>
 </defs>
 <g id="Слой_x0020_1">
  <metadata id="CorelCorpID_0Corel-Layer"/>
  <path class="fil0" d="M303 57l57 136 160 8c16,0 27,13 27,29 -1,8 -5,16 -12,21l-122 90 40 139c5,15 -4,30 -18,34 -8,2 -16,1 -22,-2l0 0 -135 -80 -135 80c-13,7 -30,3 -38,-10 -4,-8 -5,-16 -2,-24l39 -137 -122 -91c-12,-9 -15,-26 -6,-38 6,-7 13,-11 21,-11l160 -8 57 -136c6,-14 22,-21 37,-15 6,3 12,9 14,15zm-25 11l64 151 177 9 -138 103 46 157 -149 -89 -149 89 45 -157 -137 -103 177 -9 64 -151z"/>
 </g>
</svg>
