<?xml version="1.0" encoding="UTF-8"?>
<!DOCTYPE svg PUBLIC "-//W3C//DTD SVG 1.1//EN" "http://www.w3.org/Graphics/SVG/1.1/DTD/svg11.dtd">
<!-- Creator: CorelDRAW X7 -->
<svg xmlns="http://www.w3.org/2000/svg" xml:space="preserve" width="0.555551in" height="0.555551in" version="1.1" style="shape-rendering:geometricPrecision; text-rendering:geometricPrecision; image-rendering:optimizeQuality; fill-rule:evenodd; clip-rule:evenodd"
viewBox="0 0 556 556"
 xmlns:xlink="http://www.w3.org/1999/xlink">
 <defs>
  <style type="text/css">
   <![CDATA[
    .fil0 {fill:#006A20}
    .fil1 {fill:#E6E6E6}
    .fil2 {fill:white;fill-rule:nonzero}
   ]]>
  </style>
 </defs>
 <g id="Слой_x0020_1">
  <metadata id="CorelCorpID_0Corel-Layer"/>
  <path class="fil0" d="M69 125l0 306c0,30 25,55 56,55l306 0c30,0 55,-25 55,-55l0 -306c0,-31 -25,-56 -55,-56l-306 0c-31,0 -56,25 -56,56z"/>
  <path class="fil1" d="M125 56l306 0c19,0 36,7 49,20l0 0c12,13 20,30 20,49l0 306c0,19 -8,36 -20,49 -13,12 -30,20 -49,20l-306 0c-19,0 -36,-8 -49,-20 -13,-13 -20,-30 -20,-49l0 -306c0,-19 7,-36 20,-49l0 0c13,-13 30,-20 49,-20zm0 13l306 0c30,0 55,25 55,56l0 306c0,30 -25,55 -55,55l-306 0c-31,0 -56,-25 -56,-55l0 -306c0,-31 25,-56 56,-56z"/>
  <path class="fil2" d="M225 254l38 40 67 -73 20 19 -77 84 -10 10 -11 -10 -47 -51 20 -19z"/>
 </g>
</svg>
