<?xml version="1.0" encoding="UTF-8"?>
<!DOCTYPE svg PUBLIC "-//W3C//DTD SVG 1.1//EN" "http://www.w3.org/Graphics/SVG/1.1/DTD/svg11.dtd">
<!-- Creator: CorelDRAW X7 -->
<svg xmlns="http://www.w3.org/2000/svg" xml:space="preserve" width="3.47222in" height="0.416661in" version="1.1" style="shape-rendering:geometricPrecision; text-rendering:geometricPrecision; image-rendering:optimizeQuality; fill-rule:evenodd; clip-rule:evenodd"
viewBox="0 0 3472 417"
 xmlns:xlink="http://www.w3.org/1999/xlink">
 <defs>
  <style type="text/css">
   <![CDATA[
    .fil2 {fill:#E5097F}
    .fil1 {fill:#00A0E3;fill-rule:nonzero}
    .fil0 {fill:#B3B3B3;fill-rule:nonzero}
   ]]>
  </style>
 </defs>
 <g id="Слой_x0020_1">
  <metadata id="CorelCorpID_0Corel-Layer"/>
  <g id="_1950118208992">
   <path class="fil0" d="M69 181l3334 0 0 55 -3334 0 0 -55z"/>
   <path class="fil1" d="M516 153l2373 0 0 111 -2373 0 0 -111z"/>
   <path class="fil2" d="M516 69c76,0 139,63 139,139 0,77 -63,139 -139,139 -77,0 -139,-62 -139,-139 0,-76 62,-139 139,-139z"/>
   <path class="fil2" d="M2889 69c77,0 139,63 139,139 0,77 -62,139 -139,139 -77,0 -139,-62 -139,-139 0,-76 62,-139 139,-139z"/>
  </g>
 </g>
</svg>
