<?xml version="1.0" encoding="UTF-8"?>
<!DOCTYPE svg PUBLIC "-//W3C//DTD SVG 1.0//EN" "http://www.w3.org/TR/2001/REC-SVG-20010904/DTD/svg10.dtd">
<!-- Creator: CorelDRAW X8 -->
<svg xmlns="http://www.w3.org/2000/svg" xml:space="preserve" width="30px" height="27px" version="1.0" style="shape-rendering:geometricPrecision; text-rendering:geometricPrecision; image-rendering:optimizeQuality; fill-rule:evenodd; clip-rule:evenodd"
viewBox="0 0 3000028 2700091"
 xmlns:xlink="http://www.w3.org/1999/xlink">
 <defs>
  <style type="text/css">
   <![CDATA[
    .fil0 {fill:#00A0E3}
   ]]>
  </style>
 </defs>
 <g id="Слой_x0020_1">
  <metadata id="CorelCorpID_0Corel-Layer"/>
  <path class="fil0" d="M1865759 1208793c0,313289 254413,568155 567135,568155 151485,0 293899,-59074 401022,-166424 107123,-107292 166112,-249962 166112,-401731 0,-20580 -5584,-40819 -16186,-58451l-355922 -594348c40904,-17178 69648,-57629 69648,-104826 0,-62760 -50826,-113642 -113444,-113642l-970708 0 0 -223884c0,-62759 -50770,-113642 -113388,-113642 -62674,0 -113444,50883 -113444,113642l0 223884 -970708 0c-62618,0 -113444,50882 -113444,113642 0,47197 28744,87648 69648,104826l-355922 594348c-10602,17632 -16158,37871 -16158,58451 0,313289 254384,568155 567106,568155 312722,0 567163,-254866 567163,-568155 0,-20580 -5584,-40819 -16186,-58451l-350650 -585532 619151 0 0 1908024 -869623 0c-62618,0 -113416,50854 -113416,113614 0,62760 50798,113643 113416,113643l1966078 0c62647,0 113416,-50883 113416,-113643 0,-62760 -50769,-113614 -113416,-113614l-869623 0 0 -1908024 619151 0 -350622 585532c-10602,17632 -16186,37871 -16186,58451zm-1298653 340899c-147857,0 -273915,-95019 -320715,-227285l641460 0c-46829,132266 -172859,227285 -320745,227285zm253393 -454541l-506785 0 253392 -423105 253393 423105zm1612395 -423105l253392 423105 -506785 0 253393 -423105zm320744 650361c-46829,132266 -172859,227285 -320744,227285 -147857,0 -273916,-95019 -320773,-227285l641517 0z"/>
 </g>
</svg>
