<?xml version="1.0" encoding="UTF-8"?>
<!DOCTYPE svg PUBLIC "-//W3C//DTD SVG 1.0//EN" "http://www.w3.org/TR/2001/REC-SVG-20010904/DTD/svg10.dtd">
<!-- Creator: CorelDRAW X8 -->
<svg xmlns="http://www.w3.org/2000/svg" xml:space="preserve" width="30px" height="25px" version="1.0" style="shape-rendering:geometricPrecision; text-rendering:geometricPrecision; image-rendering:optimizeQuality; fill-rule:evenodd; clip-rule:evenodd"
viewBox="0 0 3000000 2544921"
 xmlns:xlink="http://www.w3.org/1999/xlink">
 <defs>
  <style type="text/css">
   <![CDATA[
    .fil0 {fill:#00A0E3}
   ]]>
  </style>
 </defs>
 <g id="Слой_x0020_1">
  <metadata id="CorelCorpID_0Corel-Layer"/>
  <path class="fil0" d="M1627678 2479566c199269,-139270 791464,-563457 1056258,-868241 203463,-231294 316064,-470808 316064,-785965 0,-111637 -22815,-218144 -64023,-315270 -42909,-100981 -105799,-192042 -183710,-268196 -77854,-76096 -170814,-137484 -273977,-179344 -99223,-40245 -208026,-62550 -322072,-62550 -103871,0 -206893,18479 -304132,54784 -112034,41832 -227157,112431 -306343,202075 -16041,18138 -30750,36872 -45460,56031 -198,255 -368,283 -566,0 -14710,-19159 -29419,-37893 -45460,-56031 -79186,-89644 -194309,-160243 -306343,-202075 -97239,-36305 -200261,-54784 -304132,-54784 -114046,0 -222849,22305 -322072,62550 -103163,41860 -196123,103248 -273977,179344 -77911,76154 -140801,167215 -183710,268196 -41208,97126 -64023,203633 -64023,315270 0,315157 112601,554671 316064,785965 264794,304784 856989,728971 1056258,868241 35370,24714 82643,65355 127621,65355 45148,0 92252,-40556 127735,-65355zm-127678 -1864670c77996,-482 93243,-57533 126885,-111297 24260,-38856 52743,-74651 85279,-106705 34803,-34208 74311,-65271 116002,-90353 32507,-19527 66857,-36050 102284,-49314 72016,-26839 148906,-40528 225768,-40528 84373,0 165061,16466 238664,46225 76295,30864 145108,76125 202613,132326 116398,113876 182008,267430 182008,430053 0,263377 -91542,449127 -263717,644570 -63031,72356 -150039,154773 -247279,239230 -97240,84458 -204880,171098 -309120,251899 -94717,73405 -186771,141991 -265900,199864 -64108,46905 -128670,93130 -193487,139015 -64817,-45885 -129379,-92110 -193487,-139015 -79129,-57873 -171183,-126459 -265900,-199864 -104240,-80801 -211880,-167441 -309120,-251899 -97240,-84457 -184248,-166874 -247279,-239230 -172175,-195443 -263717,-381193 -263717,-644570 0,-162623 65610,-316177 182008,-430053 57505,-56201 126318,-101462 202613,-132326 73603,-29759 154291,-46225 238664,-46225 76862,0 153752,13689 225768,40528 35427,13264 69777,29787 102284,49314 41691,25082 81199,56145 116002,90353 32536,32054 61019,67849 85279,106705 33642,53764 48889,110815 126885,111297z"/>
 </g>
</svg>
