<?xml version="1.0" encoding="UTF-8"?>
<!DOCTYPE svg PUBLIC "-//W3C//DTD SVG 1.0//EN" "http://www.w3.org/TR/2001/REC-SVG-20010904/DTD/svg10.dtd">
<!-- Creator: CorelDRAW X8 -->
<svg xmlns="http://www.w3.org/2000/svg" xml:space="preserve" width="22px" height="20px" version="1.0" style="shape-rendering:geometricPrecision; text-rendering:geometricPrecision; image-rendering:optimizeQuality; fill-rule:evenodd; clip-rule:evenodd"
viewBox="0 0 2200028 1980079"
 xmlns:xlink="http://www.w3.org/1999/xlink">
 <defs>
  <style type="text/css">
   <![CDATA[
    .fil0 {fill:#00A0E3}
   ]]>
  </style>
 </defs>
 <g id="Слой_x0020_1">
  <metadata id="CorelCorpID_0Corel-Layer"/>
  <path class="fil0" d="M1368225 886458c0,229757 186584,416653 415887,416653 111095,0 215556,-43316 294107,-122065 78551,-78665 121809,-183296 121809,-294588 0,-15110 -4082,-29935 -11877,-42862l-260997 -435873c29992,-12586 51083,-42266 51083,-76878 0,-46008 -37277,-83314 -83200,-83314l-711865 0 0 -164189c0,-46037 -37221,-83342 -83144,-83342 -45979,0 -83200,37305 -83200,83342l0 164189 -711865 0c-45923,0 -83171,37306 -83171,83314 0,34612 21062,64292 51054,76878l-260997 435873c-7795,12927 -11849,27752 -11849,42862 0,229757 186556,416653 415859,416653 229332,0 415944,-186896 415944,-416653 0,-15110 -4110,-29935 -11877,-42862l-257141 -429409 454043 0 0 1399237 -637736 0c-45923,0 -83171,37305 -83171,83313 0,46037 37248,83342 83171,83342l1441816 0c45923,0 83171,-37305 83171,-83342 0,-46008 -37248,-83313 -83171,-83313l-637736 0 0 -1399237 454043 0 -257112 429409c-7796,12927 -11878,27752 -11878,42862zm-952366 249997c-108401,0 -200871,-69678 -235171,-166684l470400 0c-34329,97006 -126771,166684 -235229,166684zm185847 -333339l-371665 0 185818 -310293 185847 310293zm1182406 -310293l185847 310293 -371665 0 185818 -310293zm235229 476948c-34329,97006 -126771,166684 -235229,166684 -108401,0 -200871,-69678 -235228,-166684l470457 0z"/>
 </g>
</svg>
