<?xml version="1.0" encoding="UTF-8"?>
<!DOCTYPE svg PUBLIC "-//W3C//DTD SVG 1.0//EN" "http://www.w3.org/TR/2001/REC-SVG-20010904/DTD/svg10.dtd">
<!-- Creator: CorelDRAW X8 -->
<svg xmlns="http://www.w3.org/2000/svg" xml:space="preserve" width="22px" height="19px" version="1.0" style="shape-rendering:geometricPrecision; text-rendering:geometricPrecision; image-rendering:optimizeQuality; fill-rule:evenodd; clip-rule:evenodd"
viewBox="0 0 2200000 1866272"
 xmlns:xlink="http://www.w3.org/1999/xlink">
 <defs>
  <style type="text/css">
   <![CDATA[
    .fil0 {fill:#E5097F}
   ]]>
  </style>
 </defs>
 <g id="Слой_x0020_1">
  <metadata id="CorelCorpID_0Corel-Layer"/>
  <path class="fil0" d="M1193630 1818338c146128,-102106 580402,-413184 774578,-636699 149218,-169628 231792,-345265 231792,-576377 0,-81866 -16725,-159961 -46942,-231197 -31465,-74042 -77586,-140827 -134733,-196670 -57091,-55815 -125265,-100830 -200923,-131530 -72766,-29509 -152534,-45865 -236186,-45865 -76168,0 -151712,13550 -223033,40168 -82149,30699 -166566,82461 -224649,148197 -11764,13295 -22535,27043 -33336,41103 -141,170 -255,198 -396,0 -10801,-14060 -21572,-27808 -33336,-41103 -58083,-65736 -142500,-117498 -224649,-148197 -71321,-26618 -146865,-40168 -223033,-40168 -83652,0 -163420,16356 -236186,45865 -75658,30700 -143832,75715 -200923,131530 -57147,55843 -103268,122628 -134733,196670 -30217,71236 -46942,149331 -46942,231197 0,231112 82574,406749 231792,576377 194176,223515 628450,534593 774578,636699 25938,18142 60606,47934 93602,47934 33109,0 67635,-29735 93658,-47934zm-93630 -1367424c57204,-341 68373,-42181 93063,-81611 17773,-28489 38665,-54738 62533,-78237 25512,-25087 54483,-47878 85069,-66275 23840,-14316 49012,-26420 75006,-36143 52810,-19701 109192,-29735 165545,-29735 61882,0 121041,12075 175042,33902 55929,22621 106414,55815 148566,97032 85353,83510 133485,196132 133485,315387 0,193127 -67125,329362 -193410,472684 -46206,53065 -110014,113501 -181335,175439 -71292,61909 -150238,125463 -226690,184708 -69450,53830 -136944,104146 -194970,146581 -47027,34385 -94366,68288 -141904,101936 -47538,-33648 -94877,-67551 -141904,-101936 -58026,-42435 -125520,-92751 -194970,-146581 -76452,-59245 -155398,-122799 -226690,-184708 -71321,-61938 -135129,-122374 -181335,-175439 -126285,-143322 -193410,-279557 -193410,-472684 0,-119255 48132,-231877 133485,-315387 42152,-41217 92637,-74411 148566,-97032 54001,-21827 113160,-33902 175042,-33902 56353,0 112735,10034 165545,29735 25994,9723 51166,21827 75006,36143 30586,18397 59557,41188 85069,66275 23868,23499 44760,49748 62533,78237 24690,39430 35859,81270 93063,81611z"/>
 </g>
</svg>
