<?xml version="1.0" encoding="UTF-8"?>
<!DOCTYPE svg PUBLIC "-//W3C//DTD SVG 1.0//EN" "http://www.w3.org/TR/2001/REC-SVG-20010904/DTD/svg10.dtd">
<!-- Creator: CorelDRAW X8 -->
<svg xmlns="http://www.w3.org/2000/svg" xml:space="preserve" width="28px" height="25px" version="1.0" style="shape-rendering:geometricPrecision; text-rendering:geometricPrecision; image-rendering:optimizeQuality; fill-rule:evenodd; clip-rule:evenodd"
viewBox="0 0 2800000 2481175"
 xmlns:xlink="http://www.w3.org/1999/xlink">
 <defs>
  <style type="text/css">
   <![CDATA[
    .fil0 {fill:white;fill-rule:nonzero}
   ]]>
  </style>
 </defs>
 <g id="Слой_x0020_1">
  <metadata id="CorelCorpID_0Corel-Layer"/>
  <path class="fil0" d="M2056501 2099816c-143552,112511 -284184,213003 -359844,265985 -94539,72796 -172722,115374 -296685,115374 -131363,0 -189362,-40679 -288918,-109988 -73506,-51366 -218985,-154920 -367555,-271371 -150412,-117954 -308364,-252293 -417502,-372855 -5925,-5868 -11679,-11906 -17236,-18256 -95134,-108118 -170538,-221763 -224172,-350149 -55476,-132610 -84589,-273611 -84589,-431053 0,-181169 58849,-368178 161127,-517484 104121,-152170 252038,-271173 422832,-340482 55051,-22338 113957,-39885 175954,-51905 120533,-23415 229983,-23075 350545,-1361 56327,10121 111491,25201 164728,45101 173260,64690 76368,64690 249628,0 53237,-19900 108401,-34980 164728,-45101 120562,-21714 230012,-22054 350545,1361 61997,12020 120903,29567 175954,51905 170794,69309 318711,188312 422832,340482 102278,149306 161127,336315 161127,517484 0,157442 -29113,298443 -84589,431053 -53634,128386 -129038,242031 -224172,350149l-567 -511c-109308,125268 -275907,267516 -434171,391622z"/>
 </g>
</svg>
