<?xml version="1.0" encoding="UTF-8"?>
<!DOCTYPE svg PUBLIC "-//W3C//DTD SVG 1.0//EN" "http://www.w3.org/TR/2001/REC-SVG-20010904/DTD/svg10.dtd">
<!-- Creator: CorelDRAW X8 -->
<svg xmlns="http://www.w3.org/2000/svg" xml:space="preserve" width="46px" height="46px" version="1.0" style="shape-rendering:geometricPrecision; text-rendering:geometricPrecision; image-rendering:optimizeQuality; fill-rule:evenodd; clip-rule:evenodd"
viewBox="0 0 4600000 4600000"
 xmlns:xlink="http://www.w3.org/1999/xlink">
 <defs>
  <style type="text/css">
   <![CDATA[
    .fil0 {fill:whitesmoke}
    .fil1 {fill:#00A0E3;fill-rule:nonzero}
   ]]>
  </style>
 </defs>
 <g id="Слой_x0020_1">
  <metadata id="CorelCorpID_0Corel-Layer"/>
  <g id="_3041823427296">
   <path class="fil0" d="M2300000 0c-1270260,0 -2300000,1029740 -2300000,2300000 0,1270260 1029740,2300000 2300000,2300000 1270260,0 2300000,-1029740 2300000,-2300000 0,-1270260 -1029740,-2300000 -2300000,-2300000z"/>
   <path class="fil1" d="M2203877 1323438c-69874,-84983 -195477,-97200 -280459,-27326 -84983,69874 -97200,195477 -27326,280459l595757 723429 -595757 723429c-69874,84982 -57657,210585 27326,280459 84982,69874 210585,57657 280459,-27326l697776 -847302c61540,-72057 64488,-180085 2211,-255827l-699987 -849995z"/>
  </g>
 </g>
</svg>
