<?xml version="1.0" encoding="UTF-8"?>
<!DOCTYPE svg PUBLIC "-//W3C//DTD SVG 1.0//EN" "http://www.w3.org/TR/2001/REC-SVG-20010904/DTD/svg10.dtd">
<!-- Creator: CorelDRAW X8 -->
<svg xmlns="http://www.w3.org/2000/svg" xml:space="preserve" width="72px" height="72px" version="1.0" style="shape-rendering:geometricPrecision; text-rendering:geometricPrecision; image-rendering:optimizeQuality; fill-rule:evenodd; clip-rule:evenodd"
viewBox="0 0 7200000 7200000"
 xmlns:xlink="http://www.w3.org/1999/xlink">
 <defs>
  <style type="text/css">
   <![CDATA[
    .fil0 {fill:#fff}
   ]]>
  </style>
 </defs>
 <g id="Слой_x0020_1">
  <metadata id="CorelCorpID_0Corel-Layer"/>
  <path class="fil0" d="M3600000 0c-1988220,0 -3600000,1611780 -3600000,3600000 0,1988220 1611780,3600000 3600000,3600000 1988220,0 3600000,-1611780 3600000,-3600000 0,-1988220 -1611780,-3600000 -3600000,-3600000zm-392173 2748614l1130456 746476c57997,38381 73900,116560 35519,174557 -10092,15251 -22961,27581 -37474,36794l-1135304 749679c-57997,38409 -136177,22478 -174558,-35518 -14173,-21402 -20948,-45610 -20920,-69506l-283 0 0 -1501937c0,-69704 56551,-126227 126255,-126227 28658,0 55106,9553 76309,25682z"/>
 </g>
</svg>
