<?xml version="1.0" encoding="UTF-8"?>
<!DOCTYPE svg PUBLIC "-//W3C//DTD SVG 1.0//EN" "http://www.w3.org/TR/2001/REC-SVG-20010904/DTD/svg10.dtd">
<!-- Creator: CorelDRAW X8 -->
<svg xmlns="http://www.w3.org/2000/svg" xml:space="preserve" width="20px" height="20px" version="1.0" style="shape-rendering:geometricPrecision; text-rendering:geometricPrecision; image-rendering:optimizeQuality; fill-rule:evenodd; clip-rule:evenodd"
viewBox="0 0 2000000 2000000"
 xmlns:xlink="http://www.w3.org/1999/xlink">
 <defs>
  <style type="text/css">
   <![CDATA[
    .fil2 {fill:#00A0E3}
    .fil4 {fill:#00A0E3}
    .fil1 {fill:#B0CB1F}
    .fil0 {fill:#E5097F}
    .fil3 {fill:#FFED00}
   ]]>
  </style>
 </defs>
 <g id="Слой_x0020_1">
  <metadata id="CorelCorpID_0Corel-Layer"/>
  <g id="_2629172425920">
   <path class="fil0" d="M1718550 706758l271671 274080c12982,13096 13039,34611 113,47763l-272209 277255c-12926,13181 -34158,13238 -47140,142l-271671 -274080c-12983,-13096 -13068,-34611 -142,-47792l272238 -277255c12926,-13153 34129,-13209 47140,-113z"/>
   <path class="fil1" d="M1034894 18000l506718 503486c24208,24038 24293,63581 199,87761l-507710 509354c-24095,24179 -63695,24293 -87902,227l-506718 -503487c-24208,-24066 -24321,-63609 -199,-87788l507710 -509355c24123,-24179 63666,-24264 87902,-198z"/>
   <path class="fil2" d="M1274222 1135977l271671 274080c13011,13096 13067,34639 141,47764l-515335 523754c-12954,13124 -34157,13209 -47140,113l-271671 -274052c-12982,-13124 -13067,-34639 -141,-47791l515335 -523755c12954,-13152 34157,-13209 47140,-113z"/>
   <path class="fil3" d="M1005868 378054l175236 174131c8363,8306 8391,21997 85,30359l-175576 176116c-8334,8362 -22025,8390 -30388,85l-175236 -174103c-8391,-8334 -8419,-21997 -85,-30359l175576 -176144c8334,-8362 22026,-8390 30388,-85z"/>
   <path class="fil4" d="M329015 691876l961194 973156c12983,13124 13039,34639 114,47792l-272210 277255c-12897,13152 -34185,13238 -47140,113l-961194 -973156c-12954,-13124 -13039,-34611 -113,-47763l272209 -277284c12926,-13152 34186,-13237 47140,-113z"/>
  </g>
 </g>
</svg>
