<?xml version="1.0" encoding="UTF-8"?>
<!DOCTYPE svg PUBLIC "-//W3C//DTD SVG 1.0//EN" "http://www.w3.org/TR/2001/REC-SVG-20010904/DTD/svg10.dtd">
<!-- Creator: CorelDRAW X8 -->
<svg xmlns="http://www.w3.org/2000/svg" xml:space="preserve" width="16px" height="14px" version="1.0" style="shape-rendering:geometricPrecision; text-rendering:geometricPrecision; image-rendering:optimizeQuality; fill-rule:evenodd; clip-rule:evenodd"
viewBox="0 0 1600028 1371444"
 xmlns:xlink="http://www.w3.org/1999/xlink">
 <defs>
  <style type="text/css">
   <![CDATA[
    .fil0 {fill:#00A0E3}
   ]]>
  </style>
 </defs>
 <g id="Слой_x0020_1">
  <metadata id="CorelCorpID_0Corel-Layer"/>
  <path class="fil0" d="M314021 196107l41359 -128906c12629,-40470 48631,-67201 88630,-67201l712008 0c39999,0 76000,26731 88658,67201l41331 128906 125991 0c104008,0 188030,87769 188030,195469l0 783761c0,108338 -84022,196107 -188030,196107l-1223968 0c-104008,0 -188030,-87769 -188030,-196107l0 -783761c0,-107700 84022,-195469 188030,-195469l125991 0zm486007 955220c220672,0 399986,-186530 399986,-416918 0,-229721 -179314,-416224 -399986,-416224 -220700,0 -399986,186503 -399986,416224 0,230388 179286,416918 399986,416918zm0 -147420c-142674,0 -258673,-120690 -258673,-269498 0,-148808 115999,-268804 258673,-268804 142674,0 258644,119996 258644,268804 0,148808 -115970,269498 -258644,269498zm517345 -514292l0 98068 94625 0 0 -98068 -94625 0z"/>
 </g>
</svg>
