<?xml version="1.0" encoding="UTF-8"?>
<!DOCTYPE svg PUBLIC "-//W3C//DTD SVG 1.1//EN" "http://www.w3.org/Graphics/SVG/1.1/DTD/svg11.dtd">
<!-- Creator: CorelDRAW X7 -->
<svg xmlns="http://www.w3.org/2000/svg" xml:space="preserve" width="0.555551in" height="0.555551in" version="1.1" style="shape-rendering:geometricPrecision; text-rendering:geometricPrecision; image-rendering:optimizeQuality; fill-rule:evenodd; clip-rule:evenodd"
viewBox="0 0 556 556"
 xmlns:xlink="http://www.w3.org/1999/xlink">
 <defs>
  <style type="text/css">
   <![CDATA[
    .fil0 {fill:#00A0E3}
   ]]>
  </style>
 </defs>
 <g id="Слой_x0020_1">
  <metadata id="CorelCorpID_0Corel-Layer"/>
  <path class="fil0" d="M278 35c134,0 243,109 243,243 0,134 -109,243 -243,243 -134,0 -243,-109 -243,-243 0,-134 109,-243 243,-243zm-41 137c18,-1 87,-1 104,1 16,3 26,10 33,20 8,12 9,28 10,44 0,17 0,35 0,53 0,30 4,68 -22,84 -12,8 -27,9 -43,10 -20,0 -87,1 -104,-2 -16,-2 -27,-10 -34,-20 -8,-12 -8,-27 -9,-43 -1,-18 0,-36 0,-53 0,-31 -4,-68 21,-85 13,-9 27,-8 44,-9zm-88 152c1,20 3,38 13,52 7,11 20,22 37,27 18,5 41,4 61,4 21,0 43,1 64,0 20,-1 38,-4 52,-13 33,-23 31,-61 31,-98 0,-21 1,-43 0,-65 -1,-20 -4,-37 -13,-51 -9,-13 -22,-23 -38,-27 -17,-5 -41,-5 -60,-5 -21,0 -43,0 -64,1 -21,0 -38,3 -52,13 -33,22 -32,60 -32,98 0,21 0,43 1,64zm86 -43c-2,-25 17,-44 40,-46 24,-2 44,17 46,39 2,25 -17,45 -40,47 -25,2 -45,-17 -46,-40zm35 -69c-34,4 -63,34 -58,73 4,34 34,63 73,59 34,-4 64,-35 59,-74 -4,-34 -35,-63 -74,-58zm73 -16c-19,4 -13,34 7,30 8,-1 14,-9 12,-18 -1,-8 -9,-14 -19,-12z"/>
 </g>
</svg>
