<?xml version="1.0" encoding="UTF-8"?>
<!DOCTYPE svg PUBLIC "-//W3C//DTD SVG 1.0//EN" "http://www.w3.org/TR/2001/REC-SVG-20010904/DTD/svg10.dtd">
<!-- Creator: CorelDRAW X8 -->
<svg xmlns="http://www.w3.org/2000/svg" xml:space="preserve" width="35px" height="35px" version="1.0" style="shape-rendering:geometricPrecision; text-rendering:geometricPrecision; image-rendering:optimizeQuality; fill-rule:evenodd; clip-rule:evenodd"
viewBox="0 0 3500028 3500028"
 xmlns:xlink="http://www.w3.org/1999/xlink">
 <defs>
  <style type="text/css">
   <![CDATA[
    .fil0 {fill:url(#id0)}
   ]]>
  </style>
  <linearGradient id="id0" gradientUnits="userSpaceOnUse" x1="455933" y1="2.92816e+06" x2="3.04404e+06" y2="571872">
   <stop offset="0" style="stop-opacity:1; stop-color:#FF6C42"/>
   <stop offset="1" style="stop-opacity:1; stop-color:#AA30BE"/>
  </linearGradient>
 </defs>
 <g id="Слой_x0020_1">
  <metadata id="CorelCorpID_0Corel-Layer"/>
  <path class="fil0" d="M1750000 0c966490,0 1750028,783539 1750028,1750028 0,966490 -783538,1750000 -1750028,1750000 -966490,0 -1750000,-783510 -1750000,-1750000 0,-966489 783510,-1750028 1750000,-1750028zm-293306 988572c129631,-7682 629246,-7483 746631,10148 120474,18171 192022,69167 242423,141480 57431,82348 61966,200782 66162,314028 4677,125577 2551,255548 2579,381635 0,220709 27128,489524 -154604,609687 -87252,57686 -195594,61711 -313943,66246 -143917,5443 -623236,8391 -748955,-10516 -117130,-17632 -194687,-70046 -242310,-141565 -57743,-86600 -61853,-195991 -66247,-313943 -4734,-125548 -2551,-255576 -2551,-381607 -57,-221049 -27043,-489552 154576,-609686 96011,-63526 191172,-58508 316239,-65907zm-636219 1096603c6463,143860 25030,268445 93715,370098 55305,81922 144541,159196 271337,194460 129290,35972 293448,33109 433850,33109 153272,0 309577,2523 461886,-3232 146440,-5612 271564,-24605 374208,-93630 239900,-161294 227513,-434814 227513,-705187 0,-153952 3033,-311023 -3289,-464522 -5952,-145193 -24718,-269154 -93573,-371544 -64461,-95897 -157439,-161719 -271280,-194460 -125861,-36255 -296396,-33109 -433907,-33109 -153272,0 -309578,-2495 -461886,3288 -146724,5585 -271422,24577 -374151,93574 -239872,161209 -227542,434927 -227542,705187 0,153754 -3770,312866 3119,465968zm620288 -310627c-13068,-179691 122062,-321171 285766,-333983 178642,-13891 320434,123224 333077,285765 13833,178813 -123140,320123 -285228,332964 -177678,14145 -321879,-122941 -333615,-284746zm255831 -500579c-246477,28262 -454855,247583 -422653,531166 27837,244833 249822,453835 531336,421037 244747,-28460 454175,-249283 421094,-531279 -28829,-245626 -249085,-453069 -529777,-420924zm526262 -114521c-141480,32485 -97485,249113 47197,219575 54512,-11140 102900,-63497 87848,-134478 -11566,-54624 -68005,-100490 -135045,-85097z"/>
 </g>
</svg>
