<?xml version="1.0" encoding="UTF-8"?>
<!DOCTYPE svg PUBLIC "-//W3C//DTD SVG 1.0//EN" "http://www.w3.org/TR/2001/REC-SVG-20010904/DTD/svg10.dtd">
<!-- Creator: CorelDRAW X8 -->
<svg xmlns="http://www.w3.org/2000/svg" xml:space="preserve" width="284px" height="298px" version="1.0" style="shape-rendering:geometricPrecision; text-rendering:geometricPrecision; image-rendering:optimizeQuality; fill-rule:evenodd; clip-rule:evenodd"
viewBox="0 0 28400000 29733078"
 xmlns:xlink="http://www.w3.org/1999/xlink">
 <defs>
  <style type="text/css">
   <![CDATA[
    .fil0 {fill:#00A0E3;fill-rule:nonzero}
    .fil2 {fill:#1A1A1A;fill-rule:nonzero}
    .fil3 {fill:#7070F2;fill-rule:nonzero}
    .fil1 {fill:#D5D7ED;fill-rule:nonzero}
    .fil4 {fill:#E5097F;fill-rule:nonzero}
    .fil6 {fill:#EDD4DB;fill-rule:nonzero}
    .fil5 {fill:#F50C89;fill-rule:nonzero}
   ]]>
  </style>
 </defs>
 <g id="Слой_x0020_1">
  <metadata id="CorelCorpID_0Corel-Layer"/>
  <g id="_2181085513648">
   <path class="fil0" d="M8295741 29733078c116184,-1860283 5846492,-13347687 5846492,-13347687l9333020 1278341c0,0 135497,10611135 231945,12048335l-15411457 21011z"/>
   <path class="fil0" d="M27317725 3240255c-1394214,-89369 -3851816,3468744 -3851816,3468744l-4744538 -955528 -4897817 -1254838c0,0 -666780,-3912358 -1960667,-4439224 -1293831,-526866 -3015078,2467173 -4237069,8372112 -1221991,5904939 368659,8868536 3609565,11091957 970139,665562 2366704,1126647 3896500,1405145 1498308,415608 2956208,608900 4119497,432343 3885712,-589729 6608446,-2564668 8080419,-8412293 1472086,-5847597 1380141,-9619220 -14074,-9708418z"/>
   <path class="fil1" d="M25198738 15289071c-52075,530490 -793923,891815 -1656911,807034 -862989,-84781 -1520282,-583472 -1468207,-1113962 52103,-530490 793923,-891730 1656911,-806949 863016,84696 1520310,583472 1468207,1113877z"/>
   <path class="fil1" d="M11721104 12327625c-79798,455535 -780161,713474 -1564343,576052 -784182,-137365 -1355166,-618018 -1275283,-1073525 79768,-455535 780132,-713502 1564314,-576137 784097,137338 1355166,618075 1275312,1073610z"/>
   <path class="fil2" d="M10685807 8386185c356029,-136119 716617,-257146 1082784,-363165 175934,-50970 242110,-296054 174631,-448059 -82601,-185986 -270257,-226083 -448031,-174631 -366167,106047 -726869,227045 -1082813,363278 -408501,156253 -135157,778944 273429,622577z"/>
   <path class="fil2" d="M23651640 10695831c290475,67621 581064,135327 871625,202948 178878,41626 358577,-126634 379532,-295318 24636,-198275 -115703,-337652 -295233,-379447 -290589,-67706 -581149,-135327 -871710,-202948 -178821,-41711 -358606,126633 -379532,295233 -24551,198303 115788,337736 295318,379532z"/>
   <path class="fil2" d="M15390644 13768619c-17330,75578 -92512,122783 -168033,105368 -75606,-17302 -122782,-92484 -105481,-168005 17330,-75521 92597,-122697 168118,-105396 75521,17302 122698,92597 105396,168033z"/>
   <path class="fil2" d="M15086378 13316624c-17302,75521 -92597,122697 -168090,105395 -75521,-17330 -122697,-92596 -105395,-168117 17301,-75522 92568,-122698 168089,-105396 75522,17301 122698,92596 105396,168118z"/>
   <path class="fil2" d="M14835036 13785185c-17330,75521 -92596,122697 -168117,105395 -75522,-17301 -122698,-92511 -105396,-168117 17330,-75494 92511,-122698 168118,-105368 75521,17302 122697,92568 105395,168090z"/>
   <path class="fil2" d="M19388349 14648994c-27382,72463 -108312,109105 -180832,81723 -72463,-27383 -109105,-108284 -81808,-180832 27468,-72464 108369,-109077 180833,-81723 72548,27382 109077,108284 81807,180832z"/>
   <path class="fil2" d="M19147768 14159960c-27382,72548 -108284,109190 -180747,81808 -72548,-27383 -109162,-108285 -81808,-180833 27383,-72463 108284,-109077 180833,-81722 72463,27382 109105,108312 81722,180747z"/>
   <path class="fil2" d="M18835460 14590378c-27297,72463 -108284,109105 -180747,81723 -72548,-27298 -109077,-108285 -81723,-180748 27298,-72548 108285,-109077 180748,-81807 72463,27382 109105,108369 81722,180832z"/>
   <path class="fil2" d="M15682252 6591597c445228,-558666 922652,-1095839 1420521,-1607640 376729,-387432 769372,-764530 1198091,-1094394 282037,-217050 666638,-524770 1043849,-528140 461312,-4106 490393,662589 437639,983109 -80109,487250 -328477,1032635 -691019,1376346 -52727,49980 -113608,106444 -184202,129607 -32933,10789 -26901,13706 -33273,-8920 -30186,-106358 120291,-239052 205327,-310212 399637,-334367 950006,-552068 1460448,-636452 194622,-32197 492432,-76796 661966,57908 211669,168089 98967,531679 13365,734967 -270512,642795 -861770,1304619 -1473842,1643404 -171969,95173 -50149,378711 124000,282433 648119,-358747 1225701,-999306 1562248,-1654023 253267,-492658 336604,-1252827 -358125,-1381585 -584179,-108199 -1272961,160161 -1773322,440074 -289683,162172 -1000694,614790 -652480,1031276 341701,408841 857438,-304889 1011539,-554956 318906,-517379 588313,-1216695 403998,-1826813 -395616,-1309433 -1832335,-148211 -2394540,350310 -812216,720185 -1552988,1540754 -2229367,2389414 -123915,155460 123519,339436 247179,184287z"/>
   <path class="fil1" d="M9990512 4209205c0,0 718401,-2703563 1365076,-2654065 646562,49611 1035269,1816506 1152416,2731682 117147,915091 -2624898,294751 -2517492,-77617z"/>
   <path class="fil1" d="M24981773 6911154c0,0 1282391,-2486117 1903269,-2298913 620906,187345 620991,1996516 538787,2915459 -82119,918885 -2626994,-275978 -2442056,-616546z"/>
   <path class="fil3" d="M9679167 17577281c140084,195217 303303,371943 482521,531849 31941,28487 89906,39049 130654,33074 42759,-6201 91068,-32678 115874,-68980 25683,-37690 41937,-84611 33074,-130768 -9260,-48139 -32452,-83223 -69009,-115844 -30101,-26817 -59635,-54114 -88632,-82035 10789,10449 21578,20842 32366,31319 -132834,-128418 -253691,-268417 -361409,-418497 -53859,-74955 -178510,-88094 -247745,-27694 -74870,65299 -85348,167382 -27694,247576z"/>
   <path class="fil3" d="M9648414 16512987c55955,78665 111994,157244 168033,235909 24806,34858 74304,59720 115845,64874 24239,3964 47601,1529 69971,-6994 23022,-4418 43637,-14499 61845,-30101 33640,-29478 61249,-69971 64874,-115873 -142,-15773 -397,-31545 -567,-47261 -4672,-31460 -16905,-59636 -36528,-84526 -56040,-78665 -112079,-157330 -168033,-235909 -24806,-34858 -74389,-59721 -115873,-64959 -24211,-3880 -47573,-1529 -70028,7079 -23022,4417 -43637,14413 -61760,30101 -33725,29393 -61334,69971 -64959,115873 142,15772 397,31488 538,47261 4673,31488 16934,59664 36642,84526z"/>
   <path class="fil2" d="M15928355 15305070c31488,182843 141217,354585 276175,477849 233870,213850 568973,256495 853644,121480 131957,-62637 250718,-158122 315847,-290872 26250,-53463 -8523,-122216 -60768,-143397 -58531,-23758 -117147,7249 -143397,60796 -5805,11837 -3143,7872 -15546,25514 -7164,10137 -14810,20048 -22937,29393 -14668,17075 -37038,36868 -58871,53859 -52896,41144 -112701,70849 -175905,92993 -135836,47487 -287899,41937 -416571,-23673 -117629,-59976 -216964,-165541 -274052,-276572 -21492,-41768 -38312,-85093 -53066,-129522 -8126,-24636 5890,24466 737,2718 -1444,-6201 -3059,-12459 -4588,-18746 -1132,-4502 -2010,-9033 -2831,-13620 -23985,-139433 -241997,-108199 -217871,31800z"/>
   <path class="fil2" d="M16902629 14259154c0,0 -1149358,-834558 -918150,-1143666 231321,-309221 2153364,168430 2132098,422631 -21237,254230 -1213948,721035 -1213948,721035z"/>
   <path class="fil2" d="M16779620 14040264c-68612,285322 -286625,559232 -586048,616942 -321171,61929 -589985,-145719 -698608,-438149 -49329,-132750 -251030,-44118 -201674,88661 141132,380099 519475,646986 932082,567359 403686,-77872 680230,-422376 772826,-807544 14017,-58276 -41456,-115590 -95654,-122924 -64478,-8778 -109077,38171 -122924,95655z"/>
   <path class="fil2" d="M16786954 14041935c-63940,289682 -13706,602302 157952,846734 171714,244517 466720,381798 764615,344844 192102,-23843 371235,-118988 509705,-252248 42844,-41144 56861,-105226 17330,-154752 -34461,-43212 -111682,-58758 -154752,-17387 -126407,121650 -286369,208923 -465361,211443 -145238,2011 -283085,-53717 -392162,-147588 -227442,-195727 -280593,-523496 -218748,-803749 12799,-58135 -40579,-116099 -95655,-122924 -63685,-7900 -110125,37350 -122924,95627z"/>
   <path class="fil2" d="M24606262 14184454c198134,-766002 -2322,-1670532 -658823,-2160840 -621869,-464483 -1466819,-377041 -2051650,103130 -354415,290957 -604652,695862 -727746,1135624 -32225,115364 3285,237495 121650,286766 100383,41853 254824,-7334 286766,-121649 162879,-582254 588936,-1142307 1214685,-1256141 614138,-111824 1141485,279148 1350238,841977 133260,359172 122556,749890 27694,1116538 -30016,116014 84300,231463 191309,245876 130598,17642 216172,-76626 245877,-191281z"/>
   <path class="fil2" d="M25469816 13603956c-287729,-19567 -575486,-39134 -863300,-58673 -41002,-2747 -81977,-5578 -123037,-8297 63600,62241 127143,124538 190658,186779 -12714,-190970 -25457,-381939 -38256,-572852 -43070,77786 -86225,155630 -129295,233501 252559,-88660 505146,-177207 757705,-265839 35821,-12573 71642,-25146 107463,-37690 108936,-38256 162880,-189214 113127,-290334 -56040,-113664 -173583,-154016 -290249,-113041 -252644,88575 -505203,177122 -757763,265783 -35820,12544 -71641,25117 -107491,37661 -95796,33669 -135412,141472 -129295,233502 12714,190970 25514,381854 38256,572824 6032,91067 100157,180662 190545,186864 287842,19482 575599,39049 863328,58616 40975,2832 82034,5550 123037,8382 114627,7730 236136,-68188 245877,-191310 9004,-113438 -68358,-237579 -191310,-245876z"/>
   <path class="fil2" d="M10467851 10758468c146937,-733551 782426,-1459513 1593340,-1329170 852850,137110 1171898,1106372 1037618,1856829 -50092,279686 387348,332752 437158,54595 139206,-777584 -116156,-1684860 -817511,-2119951 -662193,-410850 -1496297,-273173 -2045364,263518 -339860,332272 -549490,755837 -642398,1219584 -55813,278497 381769,330969 437157,54595z"/>
   <path class="fil2" d="M9362923 10174742c305710,123037 611335,246131 917017,369225 81241,32706 211669,10874 259100,-72605 94664,-166334 189271,-332611 283963,-498945 44514,-78155 68980,-195217 -4446,-269068 -215521,-216653 -431041,-433391 -646562,-650044 -81015,-81468 -213198,-118761 -309589,-34688 -81865,71415 -121565,222203 -34688,309561 215520,216653 431069,433306 646589,650044 -1444,-89680 -2973,-179388 -4445,-269068 -94664,166334 -189271,332668 -283963,498917 86395,-24154 172790,-48309 259185,-72520 -305710,-123122 -611420,-246131 -917017,-369225 -106925,-43070 -246952,9402 -286794,121650 -39927,112305 7476,240723 121650,286766z"/>
   <path class="fil2" d="M10362540 19006410c715032,650554 1267326,944258 2038794,1288989 1806821,807458 3782582,1204207 5761542,1147857 996644,-28431 1983944,-174943 2946862,-422376 364241,-93531 755440,-177123 1085050,-359315 551841,-304803 751986,-564215 751986,-564215 0,0 -326891,157640 -673576,313752 -308740,138951 -876184,303275 -1215223,396834 -1862549,513670 -3810842,582254 -5714762,160047 -3608036,-800039 -5600107,-2631100 -5514703,-2561525 0,0 374719,455054 534030,599952z"/>
   <path class="fil4" d="M9892677 27753807c0,0 4443754,-6213934 4390943,-9114272 -70056,-3841197 -5457219,-3707145 -6821248,-1880247 -1364000,1826870 -938906,4083903 -938906,4083903 0,0 -3418340,-4283254 -5932717,-926022 -2057285,2747030 3615511,7392769 9301928,7836638z"/>
   <path class="fil5" d="M11769497 21398401c554617,-2214613 -1213807,-3375893 -2609296,-2454373 -708009,467683 -1137861,2095144 -1249288,3226974 -1203075,-863725 -2292400,-1307027 -3033597,-1684945 -1841850,-938991 -2890342,969516 -2890342,969516 -689320,2909428 3377762,3746110 4840588,4080703 877968,200881 1708675,220759 2316612,-32933 2492,-481 4984,-226 7504,-877 676917,-165683 2063175,-1889507 2617819,-4104065z"/>
   <path class="fil6" d="M11311867 24693903c50800,-80590 101516,-161265 152232,-241941 7164,-11440 14328,-22965 21577,-34376 20049,-23192 32848,-49527 38483,-79061 10477,-27383 13281,-55898 8552,-85518 -6371,-52499 -37124,-113268 -80590,-145152 -46638,-34207 -105792,-56776 -164578,-47035 -18180,4672 -36303,9260 -54596,13932 -35906,14328 -66091,36557 -90557,66687 -50716,80646 -101460,161236 -152176,241911 -7164,11440 -14413,22965 -21577,34377 -20049,23192 -32933,49612 -38483,79005 -10477,27439 -13281,55954 -8523,85573 6343,52500 37095,113353 80505,145153 46694,34151 105877,56776 164550,47035 18207,-4588 36415,-9260 54595,-13932 35991,-14329 66177,-36557 90586,-66658z"/>
   <path class="fil2" d="M22908 21148816c-232595,1478514 1358054,2924265 2441490,3782581 1123702,890144 2411813,1581078 3753358,2080562 710586,264565 1440655,477367 2184343,625975 362713,72463 728540,130031 1096009,171487 179303,20218 422291,108709 546263,-49186 368092,-468335 681193,-994634 1003242,-1494372 594260,-922171 1129904,-2082402 1651219,-3047813 64166,-118676 -1928074,3087428 -2924096,4481643 35029,-13451 69972,-26958 105000,-40408 -2145634,-173357 -4261535,-906314 -6088574,-2039021 -796359,-493791 -1551771,-1070098 -2192244,-1756615 -510357,-547141 -982712,-1183508 -1194382,-1910263 -317631,-1090289 166079,-1820782 292090,-2172280 44599,-124397 -544592,547225 -673718,1367710z"/>
   <path class="fil0" d="M15703348 22081633c0,0 -2821928,2571210 -7702840,-320208 -163672,-97014 -624757,-58616 -510668,564159 114089,622832 752778,1135369 752778,1135369 0,0 -1031446,-1066700 -1409760,-283085 -263518,545697 1174248,1086664 1174248,1086664 0,0 -1270441,-517691 -1263220,311402 7249,829036 4201163,3933624 9116848,2131051l-157386 -4625352z"/>
   <path class="fil2" d="M15830463 21957718c-73341,-35169 -395616,462303 -2350677,976851 -868312,228490 -1797505,69405 -2664372,-150335 -563310,-142802 -1109261,-346911 -1635249,-593184 -297640,-139376 -588936,-292259 -873947,-455931 -151609,-87047 -266576,-156678 -445398,-134619 -461736,57002 -635149,471874 -530405,886972 25599,101630 63544,200739 109898,296847 -269464,-42504 -531538,36387 -727010,339209 -229933,356256 39701,663637 392247,892127 -290475,55161 -520268,219739 -539835,579535 -21407,391850 419318,747370 685158,970224 1301306,1091110 3080207,1674241 4754590,1795891 634753,46043 1268600,23588 1893782,-62722 666072,-91945 1322148,-256269 1958912,-487080 172309,-62496 -1307168,180577 -1980886,258194 -1298333,149740 -2623058,10052 -3875744,-414391 -682892,-231463 -1344348,-546178 -1943847,-947939 -379929,-254654 -797859,-557873 -1040620,-955669 -84045,-137904 -182900,-422206 14498,-508658 186722,-81808 1245437,-46383 1130952,-92512 -191055,-72378 -377777,-161661 -555778,-261818 -219626,-123604 -593354,-327685 -624672,-612129 -45336,-412153 409803,-216908 595449,-106273 98543,58673 898186,286681 896572,285322 -55303,-55303 -197086,-223818 -262470,-278016 -213821,-213652 -396919,-474111 -494811,-751788 -45335,-128587 -77305,-272862 -63203,-410369 4899,-47743 11921,-99931 36387,-142350 6994,-12091 11837,-19822 15150,-24890 32111,-7646 77192,2746 103838,10477 139376,40408 281726,159651 409407,229537 953008,521939 1985983,925229 3063698,1090912 1314418,202098 2698806,29478 3872913,-615894 236362,-129947 747143,-571239 675473,-605531z"/>
  </g>
 </g>
</svg>
