<?xml version="1.0" encoding="UTF-8"?>
<!DOCTYPE svg PUBLIC "-//W3C//DTD SVG 1.0//EN" "http://www.w3.org/TR/2001/REC-SVG-20010904/DTD/svg10.dtd">
<!-- Creator: CorelDRAW X8 -->
<svg xmlns="http://www.w3.org/2000/svg" xml:space="preserve" width="40px" height="40px" version="1.0" style="shape-rendering:geometricPrecision; text-rendering:geometricPrecision; image-rendering:optimizeQuality; fill-rule:evenodd; clip-rule:evenodd"
viewBox="0 0 4000000 4000000"
 xmlns:xlink="http://www.w3.org/1999/xlink">
 <defs>
  <style type="text/css">
   <![CDATA[
    .fil0 {fill:#B3B3B3}
   ]]>
  </style>
 </defs>
 <g id="Слой_x0020_1">
  <metadata id="CorelCorpID_0Corel-Layer"/>
  <g id="_1517190718416">
   <path class="fil0" d="M400000 0l3200000 0c220027,0 400000,179973 400000,400000l0 3200000c0,220027 -179973,400000 -400000,400000l-3200000 0c-220027,0 -400000,-179973 -400000,-400000l0 -3200000c0,-220027 179973,-400000 400000,-400000zm3200000 199986l-3200000 0c-55276,0 -105280,22280 -141110,58139l-765 765c-35859,35830 -58139,85834 -58139,141110l0 3200000c0,55276 22280,105280 58139,141110l765 765c35830,35859 85834,58139 141110,58139l3200000 0c55276,0 105280,-22280 141110,-58139l765 -765c35859,-35830 58139,-85834 58139,-141110l0 -3200000c0,-55276 -22280,-105280 -58139,-141110l-765 -765c-35830,-35859 -85834,-58139 -141110,-58139z"/>
   <path class="fil0" d="M701325 599986l2640068 0c44023,0 79995,35972 79995,79994l0 240011c0,44023 -35972,79995 -79995,79995l-2640068 0c-44022,0 -79994,-35972 -79994,-79995l0 -240011c0,-44022 35972,-79994 79994,-79994zm0 2400057l2640068 0c44023,0 79995,35943 79995,79994l0 240011c0,44023 -35972,79995 -79995,79995l-2640068 0c-44022,0 -79994,-35972 -79994,-79995l0 -240011c0,-44051 35972,-79994 79994,-79994zm0 -800000l2640068 0c44023,0 79995,35943 79995,79994l0 240011c0,44023 -35972,79995 -79995,79995l-2640068 0c-44022,0 -79994,-35972 -79994,-79995l0 -240011c0,-44051 35972,-79994 79994,-79994zm0 -800000l2640068 0c44023,0 79995,35971 79995,79994l0 240011c0,44023 -35972,79995 -79995,79995l-2640068 0c-44022,0 -79994,-35972 -79994,-79995l0 -240011c0,-44023 35972,-79994 79994,-79994z"/>
  </g>
 </g>
</svg>
