<?xml version="1.0" encoding="UTF-8"?>
<!DOCTYPE svg PUBLIC "-//W3C//DTD SVG 1.0//EN" "http://www.w3.org/TR/2001/REC-SVG-20010904/DTD/svg10.dtd">
<!-- Creator: CorelDRAW X8 -->
<svg xmlns="http://www.w3.org/2000/svg" xml:space="preserve" width="24px" height="15px" version="1.0" style="shape-rendering:geometricPrecision; text-rendering:geometricPrecision; image-rendering:optimizeQuality; fill-rule:evenodd; clip-rule:evenodd"
viewBox="0 0 2399971 1527105"
 xmlns:xlink="http://www.w3.org/1999/xlink">
 <defs>
  <style type="text/css">
   <![CDATA[
    .fil0 {fill:#00a0e3}
   ]]>
  </style>
 </defs>
 <g id="Слой_x0020_1">
  <metadata id="CorelCorpID_0Corel-Layer"/>
  <path class="fil0" d="M2381358 706904c-24789,-29666 -472289,-706904 -1180348,-706904 -708030,0 -1155530,677238 -1180319,706904 -27559,32379 -27559,78234 0,113297 24789,29694 472289,706904 1180319,706904 708059,0 1155559,-679893 1180348,-706904 24789,-32379 24789,-80918 0,-113297zm-957247 56648c0,-120712 -99935,-218541 -223188,-218541 -123252,0 -223158,97829 -223158,218541 0,120713 99906,218571 223158,218571 123253,0 223188,-97858 223188,-218571zm-223101 464065c-261713,0 -473876,-207748 -473876,-464065 0,-256316 212163,-464064 473876,-464064 261742,0 473848,207748 473848,464064 0,256317 -212106,464065 -473848,464065z"/>
 </g>
</svg>
