<?xml version="1.0" encoding="UTF-8"?>
<!DOCTYPE svg PUBLIC "-//W3C//DTD SVG 1.0//EN" "http://www.w3.org/TR/2001/REC-SVG-20010904/DTD/svg10.dtd">
<!-- Creator: CorelDRAW X8 -->
<svg xmlns="http://www.w3.org/2000/svg" xml:space="preserve" width="18px" height="16px" version="1.0" style="shape-rendering:geometricPrecision; text-rendering:geometricPrecision; image-rendering:optimizeQuality; fill-rule:evenodd; clip-rule:evenodd"
viewBox="0 0 1800000 1661556"
 xmlns:xlink="http://www.w3.org/1999/xlink">
 <defs>
  <style type="text/css">
   <![CDATA[
    .fil0 {fill:#00a0e3}
   ]]>
  </style>
 </defs>
 <g id="Слой_x0020_1">
  <metadata id="CorelCorpID_0Corel-Layer"/>
  <path class="fil0" d="M1650423 0l-1500846 0c-82467,0 -149577,67766 -149577,151032l0 1057313c0,83294 67110,151061 149577,151061l1240857 0 282340 280399c47071,46785 127226,13045 127226,-53837l0 -1434936c0,-83266 -67110,-151032 -149577,-151032zm-229388 1052260l-1047065 0c-41305,0 -74788,-33798 -74788,-75531 0,-41704 33483,-75502 74788,-75502l1047065 0c41304,0 74816,33798 74816,75502 0,41733 -33512,75531 -74816,75531zm-1121853 -377595c0,-41705 33483,-75502 74788,-75502l747911 0c41305,0 74789,33797 74789,75502 0,41733 -33484,75530 -74789,75530l-747911 0c-41305,0 -74788,-33797 -74788,-75530zm1121853 -226563l-1047065 0c-41305,0 -74788,-33826 -74788,-75531 0,-41704 33483,-75502 74788,-75502l1047065 0c41304,0 74816,33798 74816,75502 0,41705 -33512,75531 -74816,75531z"/>
 </g>
</svg>
