<?xml version="1.0" encoding="UTF-8"?>
<!DOCTYPE svg PUBLIC "-//W3C//DTD SVG 1.0//EN" "http://www.w3.org/TR/2001/REC-SVG-20010904/DTD/svg10.dtd">
<!-- Creator: CorelDRAW X8 -->
<svg xmlns="http://www.w3.org/2000/svg" xml:space="preserve" width="35px" height="35px" version="1.0" style="shape-rendering:geometricPrecision; text-rendering:geometricPrecision; image-rendering:optimizeQuality; fill-rule:evenodd; clip-rule:evenodd"
viewBox="0 0 3500000 3500000"
 xmlns:xlink="http://www.w3.org/1999/xlink">
 <defs>
  <style type="text/css">
   <![CDATA[
    .fil0 {fill:url(#id0)}
   ]]>
  </style>
  <linearGradient id="id0" gradientUnits="userSpaceOnUse" x1="1.75e+06" y1="26248.9" x2="1.75e+06" y2="3.5e+06">
   <stop offset="0" style="stop-opacity:1; stop-color:#2AABEE"/>
   <stop offset="1" style="stop-opacity:1; stop-color:#229ED9"/>
  </linearGradient>
 </defs>
 <g id="Слой_x0020_1">
  <metadata id="CorelCorpID_0Corel-Layer"/>
  <path class="fil0" d="M3500000 1750000c0,-966503 -783497,-1750000 -1750000,-1750000 -966503,0 -1750000,783497 -1750000,1750000 0,966503 783497,1750000 1750000,1750000 966503,0 1750000,-783497 1750000,-1750000zm-2707857 -18482l1020559 -439598c486001,-202139 587000,-237260 652821,-238394 14456,-255 46828,3317 67804,20325 17717,14371 22564,33789 24917,47395 2324,13606 5216,44646 2920,68910 -26334,276691 -140287,948220 -198284,1258160 -24520,131131 -72794,175097 -119594,179405 -101622,9355 -178781,-67181 -277229,-131698l-390530 -262318c-172772,-113868 -60775,-176429 37701,-278703 25767,-26788 473529,-434070 482174,-471006 1049,-4620 2098,-21826 -8135,-30926 -10233,-9099 -25342,-5952 -36227,-3515 -15449,3515 -261497,166139 -738171,487900 -69818,47963 -133087,71320 -189780,70101 -62476,-1360 -182665,-35319 -272013,-64375 -109588,-35631 -196697,-54453 -189128,-114973 3968,-31493 47367,-63723 130195,-96662l0 -28z"/>
 </g>
</svg>
