<?xml version="1.0" encoding="UTF-8"?>
<!DOCTYPE svg PUBLIC "-//W3C//DTD SVG 1.0//EN" "http://www.w3.org/TR/2001/REC-SVG-20010904/DTD/svg10.dtd">
<!-- Creator: CorelDRAW X8 -->
<svg xmlns="http://www.w3.org/2000/svg" xml:space="preserve" width="35px" height="35px" version="1.0" style="shape-rendering:geometricPrecision; text-rendering:geometricPrecision; image-rendering:optimizeQuality; fill-rule:evenodd; clip-rule:evenodd"
viewBox="0 0 3500000 3500000"
 xmlns:xlink="http://www.w3.org/1999/xlink">
 <defs>
  <style type="text/css">
   <![CDATA[
    .fil0 {fill:#8B67A7}
   ]]>
  </style>
 </defs>
 <g id="Слой_x0020_1">
  <metadata id="CorelCorpID_0Corel-Layer"/>
  <path class="fil0" d="M1750000 0c965037,0 1750000,784992 1750000,1750000 0,965037 -784992,1750000 -1750000,1750000 -965037,0 -1750000,-784992 -1750000,-1750000 0,-965037 784992,-1750000 1750000,-1750000l0 0zm638799 1111542c141482,121193 213642,411252 160891,836295 -51076,412103 -352599,438181 -408159,456001 -23694,7576 -243551,62285 -519960,44266 0,0 -206066,248488 -270338,313129 -10017,10102 -21764,14188 -29738,12287 -11038,-2781 -14159,-15863 -13932,-34988l1674 -339518c-402484,-111829 -379046,-531963 -374506,-751990 4597,-219999 45941,-400356 168667,-521521 220623,-199795 675035,-169972 675035,-169972 383756,1674 567688,117306 610366,156011zm-283589 587183l-596 0c-14160,-341 -25340,-12032 -24971,-26191 1901,-87739 -23098,-158735 -76587,-217104 -53233,-58228 -126357,-90066 -223573,-97160 -14103,-1078 -24773,-13365 -23694,-27382 1106,-14188 13365,-24773 27411,-23808 109417,8031 196049,46281 257767,113731 61916,67563 92193,152662 89923,252801 -227,14074 -11691,25113 -25623,25113l-57 0zm-106041 -71054c-5647,-113730 -67081,-176923 -177577,-182826 -14216,-823 -26219,10074 -26957,24148 -794,14188 10102,26191 24177,27042 83850,4455 124825,47133 129138,134190 738,13706 12032,24404 25624,24404l1334 0c14159,-738 24970,-12770 24261,-26958zm266563 97869c-1305,-168780 -53006,-304275 -153627,-402484 -100365,-97869 -226865,-147981 -375924,-149087 -14103,0 -25652,11322 -25737,25510 0,14159 11322,25708 25510,25850 135268,965 249793,46168 340312,134530 90520,88250 136943,211486 138134,366192 142,14074 11549,25339 25851,25339 14188,-113 25623,-11662 25481,-25850zm-440422 246956l0 0zm-215175 49203c125620,100139 322691,200647 404783,223887l879 1163c45827,14954 88590,-3093 125762,-34108l738 -596c33058,-30022 59249,-62398 78743,-97017l227 -710c18984,-36548 12486,-71166 -15408,-94747 -50622,-47217 -124542,-97953 -181662,-130188 -43160,-24035 -87285,-8882 -105559,14698l-37853 47615c-19353,24034 -55419,20885 -55475,20800 -263669,-67336 -334098,-334099 -334098,-334099 0,0 -3122,-36065 20913,-55446l47614 -37825c23666,-18274 38705,-62399 14671,-105559 -40833,-72528 -99146,-149597 -130189,-181662 -23580,-27894 -58199,-34392 -94719,-15267l-738 142c-34476,19580 -66825,45657 -96988,78744l-596 709c-30902,37031 -49034,79850 -34137,125790l1192 852c40493,143270 186430,410656 391900,572824zm884563 -1013105l0 0zm-1241787 1522737l0 0zm941371 15720c65747,-21395 437471,-69010 497941,-562524 62370,-508979 -30164,-830819 -197610,-975848 -50396,-46395 -254135,-194290 -707724,-196333 0,0 -535113,-32207 -795860,207002 -145114,145228 -196191,357565 -201582,621036 -5420,263555 -12429,757126 463946,891089l-227 204250c0,0 -3008,82687 51360,99543 65861,20459 104594,-42451 167475,-110156 34477,-37144 82092,-91824 118044,-133565 325415,27297 575747,-35215 604237,-44494z"/>
 </g>
</svg>
