<?xml version="1.0" encoding="UTF-8"?>
<!DOCTYPE svg PUBLIC "-//W3C//DTD SVG 1.0//EN" "http://www.w3.org/TR/2001/REC-SVG-20010904/DTD/svg10.dtd">
<!-- Creator: CorelDRAW X8 -->
<svg xmlns="http://www.w3.org/2000/svg" xml:space="preserve" width="35px" height="35px" version="1.0" style="shape-rendering:geometricPrecision; text-rendering:geometricPrecision; image-rendering:optimizeQuality; fill-rule:evenodd; clip-rule:evenodd"
viewBox="0 0 3500000 3500000"
 xmlns:xlink="http://www.w3.org/1999/xlink">
 <defs>
  <style type="text/css">
   <![CDATA[
    .fil0 {fill:#38B74C}
   ]]>
  </style>
 </defs>
 <g id="Слой_x0020_1">
  <metadata id="CorelCorpID_0Corel-Layer"/>
  <path class="fil0" d="M1750000 0c966503,0 1750000,783497 1750000,1750000 0,966503 -783497,1750000 -1750000,1750000 -966503,0 -1750000,-783497 -1750000,-1750000 0,-966503 783497,-1750000 1750000,-1750000zm-267449 1302125c-20013,-44532 -41103,-45411 -60152,-46205 -15619,-680 -33448,-623 -51250,-623 -17858,0 -46800,6690 -71292,33420 -24519,26788 -93600,91446 -93600,223002 0,131585 95811,258662 109163,276520 13379,17830 184989,296448 456719,403626 225893,89065 271871,71349 320882,66870 49040,-4451 158202,-64659 180482,-127106 22281,-62419 22281,-115937 15591,-127134 -6662,-11112 -24520,-17830 -51251,-31181 -26759,-13380 -158201,-78066 -182721,-86996 -24520,-8900 -42322,-13351 -60180,13437 -17801,26702 -69024,86910 -84614,104740 -15591,17887 -31181,20126 -57940,6746 -26731,-13407 -112876,-41612 -215009,-132690 -79483,-70894 -133143,-158372 -148762,-185159 -15591,-26731 -1673,-41216 11735,-54567 12019,-11962 26759,-31181 40139,-46800 13351,-15619 17802,-26759 26702,-44589 8930,-17830 4479,-33477 -2211,-46829 -6689,-13379 -58677,-145616 -82431,-198482zm1156877 447790c-170,490253 -399175,889173 -889428,889173 -187172,0 -328905,-50400 -485519,-143206l-336671 88242 89858 -328110 -21175 -33676c-368476,-585809 51562,-1362390 753819,-1362248 491585,85 889286,398325 889116,889825zm-889428 -1070506c-825790,-198 -1335092,897932 -927299,1604526l-151824 554344 567355 -148734c8617,1049 207241,130196 511740,130196 589777,0 1069910,-479935 1070137,-1069741 255,-591507 -478432,-1070478 -1070109,-1070591z"/>
 </g>
</svg>
