<?xml version="1.0" encoding="UTF-8"?>
<!DOCTYPE svg PUBLIC "-//W3C//DTD SVG 1.1//EN" "http://www.w3.org/Graphics/SVG/1.1/DTD/svg11.dtd">
<!-- Creator: CorelDRAW X7 -->
<svg xmlns="http://www.w3.org/2000/svg" xml:space="preserve" width="0.555551in" height="0.555551in" version="1.1" style="shape-rendering:geometricPrecision; text-rendering:geometricPrecision; image-rendering:optimizeQuality; fill-rule:evenodd; clip-rule:evenodd"
viewBox="0 0 556 556"
 xmlns:xlink="http://www.w3.org/1999/xlink">
 <defs>
  <style type="text/css">
   <![CDATA[
    .fil0 {fill:#00A0E3}
   ]]>
  </style>
 </defs>
 <g id="Слой_x0020_1">
  <metadata id="CorelCorpID_0Corel-Layer"/>
  <path class="fil0" d="M278 35c134,0 243,109 243,243 0,134 -109,243 -243,243 -134,0 -243,-109 -243,-243 0,-134 109,-243 243,-243l0 0zm-30 239c1,1 1,6 1,7l0 107 46 0c0,-28 0,-57 0,-86 0,0 0,-27 0,-28 0,0 0,0 0,0 0,0 30,0 31,0l0 0 4 -39 -35 0c0,-6 0,-12 0,-18 0,-5 0,-12 3,-14l32 -4 0 -39c-6,0 -13,0 -19,0 -7,0 -13,0 -19,0 -13,1 -22,5 -29,11 -11,16 -14,2 -15,64l-23 0 0 39 23 0z"/>
 </g>
</svg>
