<?xml version="1.0" encoding="UTF-8"?>
<!DOCTYPE svg PUBLIC "-//W3C//DTD SVG 1.0//EN" "http://www.w3.org/TR/2001/REC-SVG-20010904/DTD/svg10.dtd">
<!-- Creator: CorelDRAW X8 -->
<svg xmlns="http://www.w3.org/2000/svg" xml:space="preserve" width="16px" height="20px" version="1.0" style="shape-rendering:geometricPrecision; text-rendering:geometricPrecision; image-rendering:optimizeQuality; fill-rule:evenodd; clip-rule:evenodd"
viewBox="0 0 1600000 1969216"
 xmlns:xlink="http://www.w3.org/1999/xlink">
 <defs>
  <style type="text/css">
   <![CDATA[
    .fil0 {fill:#E5097F}
   ]]>
  </style>
 </defs>
 <g id="Слой_x0020_1">
  <metadata id="CorelCorpID_0Corel-Layer"/>
  <path class="fil0" d="M269407 1427907l530139 541309 524017 -535044c169287,-149784 276437,-370746 276437,-617306 0,-451109 -358160,-816866 -800028,-816866 -441812,0 -799972,365757 -799972,816866 0,205854 74750,393821 197633,537822l3940 3997c21232,24406 43824,47537 67834,69222zm530565 -259684c-190036,0 -344157,-157267 -344157,-351357 0,-194118 154121,-351442 344157,-351442 190149,0 344270,157324 344270,351442 0,194090 -154121,351357 -344270,351357z"/>
 </g>
</svg>
