<?xml version="1.0" encoding="UTF-8"?>
<!DOCTYPE svg PUBLIC "-//W3C//DTD SVG 1.0//EN" "http://www.w3.org/TR/2001/REC-SVG-20010904/DTD/svg10.dtd">
<!-- Creator: CorelDRAW X8 -->
<svg xmlns="http://www.w3.org/2000/svg" xml:space="preserve" width="16px" height="16px" version="1.0" style="shape-rendering:geometricPrecision; text-rendering:geometricPrecision; image-rendering:optimizeQuality; fill-rule:evenodd; clip-rule:evenodd"
viewBox="0 0 1600000 1600000"
 xmlns:xlink="http://www.w3.org/1999/xlink">
 <defs>
  <style type="text/css">
   <![CDATA[
    .fil0 {fill:#EE3023}
    .fil1 {fill:white;fill-rule:nonzero}
   ]]>
  </style>
 </defs>
 <g id="Слой_x0020_1">
  <metadata id="CorelCorpID_0Corel-Layer"/>
  <g id="_2006271877088">
   <path class="fil0" d="M800000 0c441811,0 800000,358217 800000,800000 0,441783 -358189,800000 -800000,800000 -441811,0 -800000,-358217 -800000,-800000 0,-441783 358189,-800000 800000,-800000z"/>
   <path class="fil1" d="M356998 757962c1021,301297 229722,488838 449437,488101 271334,-878 431805,-223712 431209,-427099 -708,-203274 -111232,-350252 -354758,-409610l-1021 -13096c-453,-153582 115371,-289079 260875,-319212 -13663,-4734 -36142,-6463 -57629,-6463 -166395,596 -349940,71859 -483991,182695 -137255,113726 -244859,305548 -244122,504684z"/>
  </g>
 </g>
</svg>
