<?xml version="1.0" encoding="UTF-8"?>
<!DOCTYPE svg PUBLIC "-//W3C//DTD SVG 1.0//EN" "http://www.w3.org/TR/2001/REC-SVG-20010904/DTD/svg10.dtd">
<!-- Creator: CorelDRAW X8 -->
<svg xmlns="http://www.w3.org/2000/svg" xml:space="preserve" width="16px" height="16px" version="1.0" style="shape-rendering:geometricPrecision; text-rendering:geometricPrecision; image-rendering:optimizeQuality; fill-rule:evenodd; clip-rule:evenodd"
viewBox="0 0 1600000 1600000"
 xmlns:xlink="http://www.w3.org/1999/xlink">
 <defs>
  <style type="text/css">
   <![CDATA[
    .fil1 {fill:#FEFEFE}
    .fil0 {fill:#0096DB}
   ]]>
  </style>
 </defs>
 <g id="Слой_x0020_1">
  <metadata id="CorelCorpID_0Corel-Layer"/>
  <g id="_2006264462832">
   <path class="fil0" d="M800000 0c441811,0 800000,358217 800000,800000 0,441783 -358189,800000 -800000,800000 -441811,0 -800000,-358217 -800000,-800000 0,-441783 358189,-800000 800000,-800000z"/>
   <path class="fil1" d="M800000 234342l0 0c40763,0 74127,33364 74127,74127l0 275586c0,40763 -33364,74127 -74127,74127l0 0c-40791,0 -74127,-33364 -74127,-74127l0 -275586c0,-40763 33336,-74127 74127,-74127zm559762 406690l0 0c12586,38778 -8816,80816 -47594,93402l-262094 85154c-38778,12614 -80816,-8816 -93402,-47595l0 0c-12614,-38778 8816,-80816 47594,-93402l262065 -85153c38778,-12615 80817,8816 93431,47594zm-213791 658040l0 0c-32995,23953 -79597,16582 -103550,-16413l-161973 -222947c-23981,-32995 -16611,-79569 16384,-103550l0 0c32996,-23953 79569,-16583 103551,16413l161973 222946c23981,32967 16582,79569 -16385,103551zm-691914 0l0 0c-32995,-23982 -40366,-70555 -16384,-103551l161973 -222946c23953,-32996 70555,-40366 103550,-16385l0 0c32967,23953 40366,70555 16384,103522l-161972 222947c-23953,32995 -70555,40394 -103551,16413zm-213819 -658040l0 0c12614,-38778 54624,-60180 93402,-47594l262094 85153c38778,12614 60208,54653 47594,93431l0 0c-12586,38778 -54624,60180 -93402,47594l-262094 -85154c-38778,-12614 -60180,-54652 -47594,-93430z"/>
  </g>
 </g>
</svg>
