<?xml version="1.0" encoding="UTF-8"?>
<!DOCTYPE svg PUBLIC "-//W3C//DTD SVG 1.0//EN" "http://www.w3.org/TR/2001/REC-SVG-20010904/DTD/svg10.dtd">
<!-- Creator: CorelDRAW X8 -->
<svg xmlns="http://www.w3.org/2000/svg" xml:space="preserve" width="16px" height="18px" version="1.0" style="shape-rendering:geometricPrecision; text-rendering:geometricPrecision; image-rendering:optimizeQuality; fill-rule:evenodd; clip-rule:evenodd"
viewBox="0 0 1600028 1782706"
 xmlns:xlink="http://www.w3.org/1999/xlink">
 <defs>
  <style type="text/css">
   <![CDATA[
    .fil0 {fill:#333333;fill-rule:nonzero}
   ]]>
  </style>
 </defs>
 <g id="Слой_x0020_1">
  <metadata id="CorelCorpID_0Corel-Layer"/>
  <path class="fil0" d="M1273751 1181668l-85 -410556c0,-117238 -31190,-213448 -89612,-285935 -59405,-73610 -148709,-125098 -263644,-151376 -33380,-7636 -56008,-37366 -55980,-70241l-168 -59686c0,-16142 -6766,-30769 -17631,-41241 -11679,-11229 -28130,-18220 -46631,-18220 -18473,0 -34952,6991 -46603,18220 -10893,10500 -17631,25099 -17631,41241l0 59686c0,35935 -26249,65749 -60640,71308 -112801,26586 -200505,77653 -259124,150309 -58450,72459 -89612,168697 -89612,285935l0 410556c0,22206 -10051,42083 -25800,55306l-140764 135794 365020 0 550393 0 364991 0 -144273 -139191c-14682,-14122 -22066,-32987 -22206,-51909zm-473751 456625c56766,0 107945,-21982 144722,-57440 18669,-17995 33689,-39612 43768,-63672l-376923 0c10078,24060 25126,45677 43795,63672 36749,35458 87900,57440 144638,57440zm244582 46379c-62774,60527 -149298,98034 -244582,98034 -95255,0 -181780,-37507 -244497,-98034 -46744,-45059 -80349,-102836 -94863,-167491l-388433 0c-39866,0 -72207,-32313 -72207,-72206l0 -87760c225,-18922 7608,-37788 22291,-51909l159685 -154043 0 -380151c0,-151067 42336,-277766 121758,-376221 69680,-86385 166732,-149467 287619,-186581l0 -4436c0,-56709 23779,-108001 62184,-145059 37676,-36356 89444,-58815 146463,-58815 57019,0 108843,22487 146491,58815 38433,37058 62212,88350 62212,145059l0 4464c120831,37114 217911,100168 287619,186553 79394,98484 121758,225182 121758,376221l0 380151 156148 150646c15750,13251 25800,33099 25800,55306l0 87760c0,39893 -32341,72206 -72207,72206l-388377 0c-14514,64655 -48147,122432 -94862,167491z"/>
 </g>
</svg>
