<?xml version="1.0" encoding="UTF-8"?>
<!DOCTYPE svg PUBLIC "-//W3C//DTD SVG 1.0//EN" "http://www.w3.org/TR/2001/REC-SVG-20010904/DTD/svg10.dtd">
<!-- Creator: CorelDRAW X8 -->
<svg xmlns="http://www.w3.org/2000/svg" xml:space="preserve" width="18px" height="18px" version="1.0" style="shape-rendering:geometricPrecision; text-rendering:geometricPrecision; image-rendering:optimizeQuality; fill-rule:evenodd; clip-rule:evenodd"
viewBox="0 0 1800000 1800000"
 xmlns:xlink="http://www.w3.org/1999/xlink">
 <defs>
  <style type="text/css">
   <![CDATA[
    .fil0 {fill:#00a0e3}
   ]]>
  </style>
 </defs>
 <g id="Слой_x0020_1">
  <metadata id="CorelCorpID_0Corel-Layer"/>
  <path class="fil0" d="M1016646 624983c0,-36029 -14400,-67692 -36709,-90709l-709 0c-22337,-23074 -54028,-37474 -89319,-37474 -34555,0 -66218,14400 -89263,37474 -23074,23017 -36709,54680 -36709,90709 0,35263 13635,66954 36709,89971l0 709c23045,22337 54000,36737 89263,36737 35291,0 66982,-14400 89319,-36737l709 -709c22309,-23017 36709,-54708 36709,-89971zm-753109 -361446c163417,-162737 388091,-263537 636463,-263537 248372,0 473046,100800 635754,263537 163446,163417 264246,388091 264246,636463 0,248372 -100800,473046 -264246,636463 -162708,162737 -387382,263537 -635754,263537 -248372,0 -473046,-100800 -636463,-263537 -162737,-163417 -263537,-388091 -263537,-636463 0,-248372 100800,-473046 263537,-636463zm347754 -62646c-92154,38155 -175663,95046 -245508,164892 -69846,69845 -126737,153354 -164892,245508 -36708,88555 -56891,185755 -56891,288709 0,102954 20183,200154 56891,288709 38155,92154 95046,175663 164892,245508 69845,69846 153354,126737 245508,164892 88555,36708 185755,56891 288709,56891 102954,0 200154,-20183 288709,-56891 92154,-38155 175663,-95046 245508,-164892 69846,-69845 126737,-153354 164892,-245508 36708,-88555 56891,-185755 56891,-288709 0,-102954 -20183,-200154 -56891,-288709 -38155,-92154 -95046,-175663 -164892,-245508 -69845,-69846 -153354,-126737 -245508,-164892 -88555,-36708 -185755,-56891 -288709,-56891 -102954,0 -200154,20183 -288709,56891zm463663 236892c47509,48217 77046,113754 77046,187200 0,72708 -29537,138954 -77046,186463l-7908 8617c48245,21628 91417,52583 128154,89320 78463,79171 126709,188617 126709,309571 0,113755 -118800,182155 -271446,208092 -51817,8617 -106554,12954 -160554,12954 -53972,0 -108709,-4337 -159846,-12954 -152589,-25937 -272154,-94337 -272154,-208092 0,-120954 48274,-230400 126737,-309571 36737,-36737 80645,-67692 128863,-89320l-8646 -8617c-47509,-47509 -76309,-113755 -76309,-186463 0,-73446 29537,-138983 76309,-187200 47537,-48246 113046,-77783 185046,-77783 72000,0 137537,29537 185045,77783zm-185045 480926c-82063,0 -156246,33137 -209509,87845 -54000,54000 -87109,129572 -87109,212400 0,32372 69846,58309 159109,73418 42491,7228 90000,10828 137509,10828 48274,0 95045,-3600 138245,-10828 89292,-15109 158400,-41046 158400,-73418 0,-82828 -33108,-158400 -86400,-212400 -54000,-54708 -128154,-87845 -210245,-87845z"/>
 </g>
</svg>
