<?xml version="1.0" encoding="UTF-8"?>
<!DOCTYPE svg PUBLIC "-//W3C//DTD SVG 1.0//EN" "http://www.w3.org/TR/2001/REC-SVG-20010904/DTD/svg10.dtd">
<!-- Creator: CorelDRAW X8 -->
<svg xmlns="http://www.w3.org/2000/svg" xml:space="preserve" width="18px" height="18px" version="1.0" style="shape-rendering:geometricPrecision; text-rendering:geometricPrecision; image-rendering:optimizeQuality; fill-rule:evenodd; clip-rule:evenodd"
viewBox="0 0 1800000 1800000"
 xmlns:xlink="http://www.w3.org/1999/xlink">
 <defs>
  <style type="text/css">
   <![CDATA[
    .fil0 {fill:#333333}
   ]]>
  </style>
 </defs>
 <g id="Слой_x0020_1">
  <metadata id="CorelCorpID_0Corel-Layer"/>
  <path class="fil0" d="M263509 263480c83338,-82885 182636,-149811 292790,-195392 105931,-43852 222010,-68088 343701,-68088 121748,0 237827,24265 343729,68117 110013,45581 209084,112507 292025,195363 83226,83311 150293,182523 195988,292564 43993,106016 68258,222151 68258,343956 0,121805 -24265,237940 -68258,343956 -45695,110041 -112762,209253 -195959,292535 -82970,82885 -182041,149811 -292054,195392 -105902,43852 -221981,68117 -343729,68117 -121691,0 -237770,-24236 -343701,-68088 -110154,-45581 -209452,-112507 -292790,-195392 -82914,-83367 -149840,-182665 -195421,-292819 -43852,-105931 -68088,-222010 -68088,-343701 0,-121691 24236,-237770 68088,-343701 45581,-110154 112507,-209452 195421,-292819zm689414 183374l0 437555 293811 0 0 180256 -474180 0 0 -623452 180369 0 0 5641zm-337692 -236410c-45042,18595 -88072,41839 -128239,68825 -40989,27496 -79228,59103 -113896,93799 -34724,34696 -66331,72935 -93827,113924 -26986,40167 -50230,83197 -68825,128239 -18312,44136 -32485,90596 -41953,138870 -9269,46970 -14116,95754 -14116,145899 0,50145 4847,98929 14088,145871 9496,48189 23669,94705 41981,138898 18595,45042 41839,88072 68825,128239 27496,40989 59103,79228 93799,113896 34696,34724 72935,66331 113924,93827 40167,26986 83197,50230 128239,68825 44136,18312 90596,32485 138813,41953 46970,9269 95783,14116 145956,14116 50173,0 98986,-4847 145928,-14088 48245,-9468 94677,-23669 138841,-41981 45042,-18595 88072,-41839 128239,-68825 40989,-27496 79228,-59103 113896,-93799 34724,-34696 66331,-72935 93827,-113924 26986,-40167 50230,-83197 68825,-128239 18312,-44136 32485,-90596 41953,-138813 9269,-46970 14116,-95783 14116,-145956 0,-50173 -4847,-98986 -14088,-145928 -9468,-48245 -23669,-94677 -41981,-138841 -18595,-45042 -41839,-88072 -68825,-128239 -27496,-40989 -59103,-79228 -93799,-113896 -34696,-34724 -72935,-66331 -113924,-93827 -40167,-26986 -83197,-50230 -128239,-68825 -44136,-18312 -90596,-32485 -138870,-41953 -46970,-9269 -95754,-14116 -145899,-14116 -50145,0 -98929,4847 -145871,14088 -48189,9496 -94705,23669 -138898,41981z"/>
 </g>
</svg>
