<?xml version="1.0" encoding="UTF-8"?>
<!DOCTYPE svg PUBLIC "-//W3C//DTD SVG 1.0//EN" "http://www.w3.org/TR/2001/REC-SVG-20010904/DTD/svg10.dtd">
<!-- Creator: CorelDRAW X8 -->
<svg xmlns="http://www.w3.org/2000/svg" xml:space="preserve" width="20px" height="18px" version="1.0" style="shape-rendering:geometricPrecision; text-rendering:geometricPrecision; image-rendering:optimizeQuality; fill-rule:evenodd; clip-rule:evenodd"
viewBox="0 0 2000028 1780015"
 xmlns:xlink="http://www.w3.org/1999/xlink">
 <defs>
  <style type="text/css">
   <![CDATA[
    .fil0 {fill:#00a0e3;fill-rule:nonzero}
   ]]>
  </style>
 </defs>
 <g id="Слой_x0020_1">
  <metadata id="CorelCorpID_0Corel-Layer"/>
  <path class="fil0" d="M66451 0c-37972,0 -66451,33253 -66451,66451 0,37972 28479,66450 66451,66450l223084 0c109169,275324 218366,550620 327536,825916l-99677 242099c-9520,18986 -9520,42718 4747,61704 14211,18986 33225,28479 56958,28479l1110732 0c37972,0 66451,-28479 66451,-66451 0,-33225 -28479,-66451 -66451,-66451l-1011056 0 56986 -137648 1072760 -85436c28479,0 52212,-23733 56958,-52212l132902 -579098c9493,-37972 -23733,-80718 -61705,-80718l-1471465 0 -71197 -180367c-9493,-23732 -33226,-42718 -61704,-42718l-265803 0 -56 0zm455690 355986l412972 0 0 199380 -332282 0 -80690 -199380 0 0zm545873 0l265831 0 0 199380 -265831 0 0 -199380zm398733 0l384465 0 -47465 199380 -337000 0 0 -199380zm-811705 337028l280071 0 0 180367 -204099 14239 -75972 -194606 0 0zm412972 0l265831 0 0 147169 -265831 18986 0 -166155zm398733 0l308521 0 -28479 113916 -280042 23760 0 -137676zm-645550 645550c-118662,0 -223084,99704 -223084,218366 0,123408 104422,223085 223084,223085 123409,0 223085,-99677 223085,-223085 0,-118662 -99676,-218366 -223085,-218366zm626564 0c-123437,0 -223085,99704 -223085,218366 0,123408 99676,223085 223085,223085 118662,0 218338,-99677 218338,-223085 0,-118662 -99676,-218366 -218338,-218366zm-626564 132901c52212,0 90183,37972 90183,85437 0,52211 -37971,90183 -90183,90183 -47465,0 -85436,-37972 -85436,-90183 0,-47465 37971,-85437 85436,-85437zm626564 0c47465,0 85436,37972 85436,85437 0,52211 -37971,90183 -85436,90183 -52212,0 -90183,-37972 -90183,-90183 0,-47465 37971,-85437 90183,-85437z" display="inline"/>
 </g>
</svg>
