<?xml version="1.0" encoding="UTF-8"?>
<!DOCTYPE svg PUBLIC "-//W3C//DTD SVG 1.0//EN" "http://www.w3.org/TR/2001/REC-SVG-20010904/DTD/svg10.dtd">
<!-- Creator: CorelDRAW X8 -->
<svg xmlns="http://www.w3.org/2000/svg" xml:space="preserve" width="21px" height="18px" version="1.0" style="shape-rendering:geometricPrecision; text-rendering:geometricPrecision; image-rendering:optimizeQuality; fill-rule:evenodd; clip-rule:evenodd"
viewBox="0 0 2100000 1781423"
 xmlns:xlink="http://www.w3.org/1999/xlink">
 <defs>
  <style type="text/css">
   <![CDATA[
    .fil0 {fill:#333333}
   ]]>
  </style>
 </defs>
 <g id="Слой_x0020_1">
  <metadata id="CorelCorpID_0Corel-Layer"/>
  <path class="fil0" d="M1139387 1735663c139467,-97495 553996,-394412 739362,-607751 142413,-161912 221251,-329575 221251,-550181 0,-78136 -15964,-152709 -44806,-220661 -30048,-70701 -74068,-134417 -128609,-187751 -54513,-53279 -119575,-96233 -191791,-125523 -69439,-28169 -145612,-43796 -225431,-43796 -72722,0 -144826,12934 -212890,38353 -78445,29262 -159022,78697 -214433,141431 -11222,12709 -21519,25811 -31844,39222 -140,196 -252,196 -392,0 -10297,-13411 -20622,-26513 -31844,-39222 -55411,-62734 -135988,-112169 -214433,-141431 -68036,-25419 -140168,-38353 -212890,-38353 -79819,0 -155992,15627 -225431,43796 -72216,29290 -137278,72272 -191791,125523 -54541,53306 -98561,117050 -128609,187751 -28842,67952 -44806,142553 -44806,220661 0,220606 78838,388297 221251,550181 185338,213339 599867,510256 739362,607751 24774,17311 57852,45760 89359,45760 31591,0 64557,-28393 89415,-45760zm-89387 -1305254c54569,-337 65259,-40261 88798,-77912 17002,-27186 36921,-52240 59731,-74657 24353,-23960 51988,-45676 81194,-63239 22754,-13691 46798,-25250 71572,-34537 50416,-18797 104228,-28365 158040,-28365 59058,0 115535,11531 167046,32349 53419,21603 101591,53307 141823,92613 81475,79736 127431,187219 127431,301042 0,184385 -64080,314397 -184609,451199 -44104,50669 -105014,108353 -173078,167467 -68064,59114 -143423,119771 -216369,176304 -66296,51399 -130713,99403 -186124,139916 -44862,32826 -90060,65203 -135455,97299 -45367,-32124 -90565,-64473 -135427,-97299 -55411,-40513 -119828,-88517 -186124,-139916 -72946,-56533 -148305,-117190 -216369,-176304 -68064,-59114 -128974,-116798 -173078,-167467 -120529,-136802 -184609,-266842 -184609,-451199 0,-113823 45928,-221306 127431,-301042 40260,-39334 88404,-71010 141823,-92613 51511,-20818 107988,-32349 167046,-32349 53812,0 107624,9596 158040,28365 24802,9287 48846,20846 71572,34537 29206,17563 56841,39279 81194,63239 22810,22417 42729,47471 59731,74657 23540,37623 34229,77575 88798,77912l-28 0z"/>
 </g>
</svg>
