<?xml version="1.0" encoding="UTF-8"?>
<!DOCTYPE svg PUBLIC "-//W3C//DTD SVG 1.0//EN" "http://www.w3.org/TR/2001/REC-SVG-20010904/DTD/svg10.dtd">
<!-- Creator: CorelDRAW X8 -->
<svg xmlns="http://www.w3.org/2000/svg" xml:space="preserve" width="20px" height="18px" version="1.0" style="shape-rendering:geometricPrecision; text-rendering:geometricPrecision; image-rendering:optimizeQuality; fill-rule:evenodd; clip-rule:evenodd"
viewBox="0 0 2000028 1800040"
 xmlns:xlink="http://www.w3.org/1999/xlink">
 <defs>
  <style type="text/css">
   <![CDATA[
    .fil0 {fill:#333333}
   ]]>
  </style>
 </defs>
 <g id="Слой_x0020_1">
  <metadata id="CorelCorpID_0Corel-Layer"/>
  <path class="fil0" d="M1243813 805851c0,208861 169658,378774 378094,378774 101000,0 195963,-39375 267369,-110979 71407,-71520 110724,-166653 110724,-267795 0,-13748 -3685,-27213 -10772,-38977l-237265 -396236c27298,-11452 46461,-38410 46461,-69875 0,-41841 -33875,-75744 -75630,-75744l-647164 0 0 -149247c0,-41869 -33846,-75772 -75602,-75772 -41812,0 -75601,33903 -75601,75772l0 149247 -647164 0c-41755,0 -75630,33903 -75630,75744 0,31465 19134,58423 46404,69875l-237237 396236c-7087,11764 -10800,25229 -10800,38977 0,208861 169601,378774 378065,378774 208493,0 378122,-169913 378122,-378774 0,-13748 -3742,-27213 -10772,-38977l-233750 -390368 412762 0 0 1272047 -579755 0c-41755,0 -75630,33903 -75630,75715 0,41869 33875,75772 75630,75772l1310741 0c41755,0 75630,-33903 75630,-75772 0,-41812 -33875,-75715 -75630,-75715l-579755 0 0 -1272047 412762 0 -233750 390368c-7058,11764 -10772,25229 -10772,38977l-85 0zm-865748 227287c-98534,0 -182640,-63356 -213794,-151544l427644 0c-31210,88216 -115230,151544 -213850,151544zm168949 -303059l-337898 0 168921 -282110 168948 282110 29 0zm1074893 -282053l168948 282081 -337897 0 168920 -282081 29 0zm213878 433568c-31210,88216 -115259,151544 -213878,151544 -98535,0 -182612,-63356 -213851,-151544l427673 0 56 0z"/>
 </g>
</svg>
