<?xml version="1.0" encoding="UTF-8"?>
<!DOCTYPE svg PUBLIC "-//W3C//DTD SVG 1.1//EN" "http://www.w3.org/Graphics/SVG/1.1/DTD/svg11.dtd">
<!-- Creator: CorelDRAW X7 -->
<svg xmlns="http://www.w3.org/2000/svg" xml:space="preserve" width="0.555551in" height="0.555551in" version="1.1" style="shape-rendering:geometricPrecision; text-rendering:geometricPrecision; image-rendering:optimizeQuality; fill-rule:evenodd; clip-rule:evenodd"
viewBox="0 0 556 556"
 xmlns:xlink="http://www.w3.org/1999/xlink">
 <defs>
  <style type="text/css">
   <![CDATA[
    .fil0 {fill:#23CFCF}
   ]]>
  </style>
 </defs>
 <g id="Слой_x0020_1">
  <metadata id="CorelCorpID_0Corel-Layer"/>
  <path class="fil0" d="M415 279c2,-1 1,1 2,-1l1 -7c11,-1 18,-1 27,-5l18 -12c-6,0 -12,2 -22,0l-19 -4c1,-1 4,-1 6,-1 2,-1 4,-1 7,-2 4,-1 7,-2 11,-3l15 -15c-7,3 -13,4 -22,4 -4,0 -21,0 -22,-4 -2,-5 -2,-9 -5,-18 -3,-6 -6,-11 -9,-16 -7,-10 -15,-18 -25,-24l-40 -12c2,-2 12,-4 15,-5 18,-5 17,-11 12,-13 -5,-1 -19,4 -25,6l11 -12c-11,1 -19,7 -27,12l3 -8c-11,3 -30,29 -35,39l-23 50c-2,-1 -15,-15 -26,-21 -8,-5 -20,-11 -31,-16 -24,-11 -42,-18 -67,-27 -2,22 13,34 30,46l-21 3c0,9 7,19 13,24 10,9 15,9 25,12l2 1c-15,3 -11,1 -24,10 0,5 13,18 23,20l22 3c-2,1 -4,2 -6,3 -2,2 -3,3 -5,5 -3,3 -4,7 -2,12l25 12c-2,2 -10,9 -13,11 -15,10 -31,18 -53,19 -15,0 -30,-3 -42,-7 -13,-6 -19,-10 -29,-18 3,5 10,12 14,17 39,41 103,64 169,52 41,-7 67,-21 91,-38 4,-3 13,-11 17,-15 10,-11 19,-22 26,-35 2,-4 9,-18 8,-22l0 0zm-137 -245c135,0 244,109 244,244 0,135 -109,244 -244,244 -135,0 -244,-109 -244,-244 0,-135 109,-244 244,-244l0 0z"/>
 </g>
</svg>
