<?xml version="1.0" encoding="UTF-8"?>
<!DOCTYPE svg PUBLIC "-//W3C//DTD SVG 1.0//EN" "http://www.w3.org/TR/2001/REC-SVG-20010904/DTD/svg10.dtd">
<!-- Creator: CorelDRAW X8 -->
<svg xmlns="http://www.w3.org/2000/svg" xml:space="preserve" width="35px" height="35px" version="1.0" style="shape-rendering:geometricPrecision; text-rendering:geometricPrecision; image-rendering:optimizeQuality; fill-rule:evenodd; clip-rule:evenodd"
viewBox="0 0 3500000 3500000"
 xmlns:xlink="http://www.w3.org/1999/xlink">
 <defs>
  <style type="text/css">
   <![CDATA[
    .fil0 {fill:#43A7D8}
   ]]>
  </style>
 </defs>
 <g id="Слой_x0020_1">
  <metadata id="CorelCorpID_0Corel-Layer"/>
  <path class="fil0" d="M1750000 0c966559,0 1750000,783554 1750000,1750000 0,966559 -783441,1750000 -1750000,1750000 -966559,0 -1750000,-783441 -1750000,-1750000 0,-966446 783441,-1750000 1750000,-1750000zm1094062 1178960c-76422,33023 -158684,55219 -244999,65282 88186,-51308 155764,-132350 187597,-229125 -82460,47565 -173679,82035 -270907,100517 -77783,-80391 -188561,-130621 -311302,-130621 -235361,0 -426331,185188 -426331,413774 0,32485 3713,64091 11055,94394 -354388,-17263 -668723,-182098 -878940,-432455 -36766,61115 -57770,132123 -57770,208035 0,143490 75260,270369 189666,344410 -69988,-2182 -135610,-20664 -193266,-51845l0 5272c0,200580 147005,367824 342114,405865 -35745,9411 -73390,14570 -112338,14570 -27439,0 -54113,-2522 -80164,-7455 54256,164495 211749,284146 398467,287434 -146013,111147 -329868,177222 -529711,177222 -34441,0 -68372,-1984 -101821,-5811 188902,117468 412896,186038 653841,186038 784433,0 1213401,-630851 1213401,-1177740l-1191 -53604c83112,-58195 155396,-131045 212599,-214157z"/>
 </g>
</svg>
