<?xml version="1.0" encoding="UTF-8"?>
<!DOCTYPE svg PUBLIC "-//W3C//DTD SVG 1.0//EN" "http://www.w3.org/TR/2001/REC-SVG-20010904/DTD/svg10.dtd">
<!-- Creator: CorelDRAW X8 -->
<svg xmlns="http://www.w3.org/2000/svg" xml:space="preserve" width="19px" height="18px" version="1.0" style="shape-rendering:geometricPrecision; text-rendering:geometricPrecision; image-rendering:optimizeQuality; fill-rule:evenodd; clip-rule:evenodd"
viewBox="0 0 1900028 1764484"
 xmlns:xlink="http://www.w3.org/1999/xlink">
 <defs>
  <style type="text/css">
   <![CDATA[
    .fil0 {fill:#333333;fill-rule:nonzero}
   ]]>
  </style>
 </defs>
 <g id="Слой_x0020_1">
  <metadata id="CorelCorpID_0Corel-Layer"/>
  <path class="fil0" d="M1684486 138294l-1468917 0c-21312,0 -40652,8753 -54573,22813 -14004,14116 -22702,33900 -22702,55852l0 1034833c0,21951 8726,41763 22702,55879 13921,14060 33261,22840 54573,22840l1242650 0 296734 294678c667,667 1445,1001 2057,1001l2111 -362 1834 -1139c473,-472 778,-1584 778,-3306l0 -1404424c0,-21952 -8697,-41736 -22701,-55852 -13922,-14060 -33233,-22813 -54546,-22813zm-1289359 591191c0,-38513 30927,-69717 69022,-69717l690611 0c38124,0 68995,31204 68995,69717 0,38540 -30871,69744 -68995,69744l-690611 0c-38095,0 -69022,-31204 -69022,-69744zm1035861 -254360l-966783 0c-38124,0 -69050,-31260 -69050,-69745 0,-38512 30926,-69716 69050,-69716l966783 0c38123,0 69078,31204 69078,69716 0,38513 -30955,69745 -69078,69745zm0 648181l-966783 0c-38124,0 -69050,-31205 -69050,-69717 0,-38513 30926,-69745 69050,-69745l966783 0c38123,0 69078,31232 69078,69745 0,38512 -30955,69717 -69078,69717zm-1215419 -1123306l1468889 0c59381,0 113315,24480 152355,63909 39040,39346 63215,93531 63215,153050l0 1404424c0,40735 -16283,75329 -41291,100504 -13505,13616 -29454,24258 -46654,31427 -17450,7280 -36234,11170 -55073,11170 -34873,0 -70412,-12893 -99255,-41513l-255943 -254165 -1186243 0c-59380,0 -113314,-24480 -152354,-63910 -39041,-39373 -63215,-93585 -63215,-153104l0 -1034833c0,-59519 24174,-113704 63215,-153050 39040,-39429 92974,-63909 152354,-63909z"/>
 </g>
</svg>
