<?xml version="1.0" encoding="UTF-8"?>
<!DOCTYPE svg PUBLIC "-//W3C//DTD SVG 1.0//EN" "http://www.w3.org/TR/2001/REC-SVG-20010904/DTD/svg10.dtd">
<!-- Creator: CorelDRAW X8 -->
<svg xmlns="http://www.w3.org/2000/svg" xml:space="preserve" width="16px" height="16px" version="1.0" style="shape-rendering:geometricPrecision; text-rendering:geometricPrecision; image-rendering:optimizeQuality; fill-rule:evenodd; clip-rule:evenodd"
viewBox="0 0 1600028 1600057"
 xmlns:xlink="http://www.w3.org/1999/xlink">
 <defs>
  <style type="text/css">
   <![CDATA[
    .fil0 {fill:#00A0E3}
   ]]>
  </style>
 </defs>
 <g id="Слой_x0020_1">
  <metadata id="CorelCorpID_0Corel-Layer"/>
  <path class="fil0" d="M234209 234180c74100,-73675 162347,-133177 260288,-173686 94171,-38978 197328,-60494 305531,-60494 108203,0 211417,21544 305503,60522 97800,40537 185876,100011 259580,173658 73988,74044 133603,162234 174225,260090 39120,94228 60692,197470 60692,305758 0,108260 -21572,211474 -60692,305758 -40622,97828 -100209,185990 -174197,260034 -73732,73675 -161836,133177 -259608,173686 -94114,38978 -197300,60551 -305503,60551 -108203,0 -211360,-21545 -305531,-60523 -97913,-40508 -186188,-100010 -260288,-173686 -73704,-74129 -133206,-162375 -173715,-260317 -38978,-94171 -60494,-197328 -60494,-305503 0,-108203 21516,-211360 60494,-305531 40509,-97913 100011,-186188 173715,-260317zm629347 143043l0 439701 295269 0 0 181141 -476525 0 0 -626540 181256 0 0 5641 0 57z"/>
 </g>
</svg>
