<?xml version="1.0" encoding="UTF-8"?>
<!DOCTYPE svg PUBLIC "-//W3C//DTD SVG 1.0//EN" "http://www.w3.org/TR/2001/REC-SVG-20010904/DTD/svg10.dtd">
<!-- Creator: CorelDRAW X8 -->
<svg xmlns="http://www.w3.org/2000/svg" xml:space="preserve" width="16px" height="16px" version="1.0" style="shape-rendering:geometricPrecision; text-rendering:geometricPrecision; image-rendering:optimizeQuality; fill-rule:evenodd; clip-rule:evenodd"
viewBox="0 0 1685650 1663700"
 xmlns:xlink="http://www.w3.org/1999/xlink">
 <defs>
  <style type="text/css">
   <![CDATA[
    .fil0 {fill:#E5097F}
   ]]>
  </style>
 </defs>
 <g id="Слой_x0020_1">
  <metadata id="CorelCorpID_0Corel-Layer"/>
  <path class="fil0" d="M1683948 1220965l-5943 -32373c-4539,-42676 -48021,-69793 -90667,-65313l-840795 149858c-10303,-1463 -16186,2957 -22069,7407 -29536,-51456 -71555,-88876 -131223,-113036 716,-5167 2180,-15470 -1523,-26490l-164014 -926862c-4510,-42676 -45095,-90399 -84157,-111662l-218038 -93714c-39033,-21263 -89025,-1971 -105152,37778l-14663 29476c-16097,39779 3166,89772 42945,105898l117873 58594c44916,16843 79618,68986 89294,112408l140869 792235c3703,11050 2270,21323 5973,32373 -72779,31805 -129312,97447 -146036,179185 -29864,137673 61700,271405 199373,301239 132537,29148 270689,-56533 300553,-194206 5136,717 15469,2180 21323,-2240l840077 -144692c43393,-9676 75646,-52411 66000,-95804l0 -59zm-727251 -732776c5973,32372 29566,51456 61908,45483l5884 -4420c31656,-806 46289,-30282 45483,-61908l-9676 -43393c-6690,-27206 -30283,-46289 -62625,-40346l-5137 -717c-32403,5973 -47036,35419 -45513,61908l9676 43393zm-262804 598895c9676,43392 47991,69822 90667,65313l678961 -120024c42676,-4510 74929,-47275 65283,-90668l-95446 -554636c-4509,-42676 -47991,-69822 -90667,-65313l-145648 26818c-42675,4509 -69792,47992 -65283,90667l12633 59579c9676,43393 -22637,86158 -66030,95834l-86068 14156c-42646,4539 -86128,-22637 -95804,-66030l-7496 -58862c-9676,-43392 -47275,-74929 -95804,-66000l-129461 23832c-42676,4510 -74959,47275 -65313,90668l95446 554666 30 0zm-208004 433179c-61132,-13827 -100254,-71883 -86397,-132985 13827,-61132 71883,-100254 127849,-87144 61102,13857 100224,71913 86396,133015 -13110,55966 -71166,95088 -127848,87114z"/>
 </g>
</svg>
