<?xml version="1.0" encoding="UTF-8"?>
<!DOCTYPE svg PUBLIC "-//W3C//DTD SVG 1.0//EN" "http://www.w3.org/TR/2001/REC-SVG-20010904/DTD/svg10.dtd">
<!-- Creator: CorelDRAW X8 -->
<svg xmlns="http://www.w3.org/2000/svg" xml:space="preserve" width="20px" height="20px" version="1.0" style="shape-rendering:geometricPrecision; text-rendering:geometricPrecision; image-rendering:optimizeQuality; fill-rule:evenodd; clip-rule:evenodd"
viewBox="0 0 2000000 2000000"
 xmlns:xlink="http://www.w3.org/1999/xlink">
 <defs>
  <style type="text/css">
   <![CDATA[
    .fil0 {fill:#fff}
   ]]>
  </style>
 </defs>
 <g id="Слой_x0020_1">
  <metadata id="CorelCorpID_0Corel-Layer"/>
  <path class="fil0" d="M0 230783c0,-42505 34452,-76928 76928,-76928l243923 0c31690,-89632 117136,-153855 217613,-153855 100477,0 185923,64223 217583,153855l1167025 0c42476,0 76928,34423 76928,76928 0,42476 -34452,76898 -76928,76898l-1166996 0c-31660,89633 -117135,153855 -217612,153855 -100477,0 -185981,-64222 -217642,-153855l-243894 0c-42476,0 -76928,-34422 -76928,-76898zm1679149 846145c-31690,89632 -117136,153855 -217613,153855 -100477,0 -185923,-64223 -217583,-153855l-1167025 0c-42476,0 -76928,-34452 -76928,-76928 0,-42476 34452,-76928 76928,-76928l1167025 0c31660,-89632 117106,-153855 217583,-153855 100477,0 185923,64223 217613,153855l243923 0c42476,0 76928,34452 76928,76928 0,42476 -34452,76928 -76928,76928l-243923 0zm-692319 769217c-31690,89632 -117136,153855 -217613,153855 -100447,0 -185893,-64223 -217583,-153855l-474706 0c-42476,0 -76928,-34423 -76928,-76928 0,-42476 34452,-76898 76928,-76898l474677 0c31690,-89633 117136,-153855 217612,-153855 100477,0 185952,64222 217642,153855l936213 0c42476,0 76928,34422 76928,76898 0,42505 -34452,76928 -76928,76928l-936242 0z"/>
 </g>
</svg>
