<?xml version="1.0" encoding="UTF-8"?>
<!DOCTYPE svg PUBLIC "-//W3C//DTD SVG 1.0//EN" "http://www.w3.org/TR/2001/REC-SVG-20010904/DTD/svg10.dtd">
<!-- Creator: CorelDRAW X8 -->
<svg xmlns="http://www.w3.org/2000/svg" xml:space="preserve" width="18px" height="18px" version="1.0" style="shape-rendering:geometricPrecision; text-rendering:geometricPrecision; image-rendering:optimizeQuality; fill-rule:evenodd; clip-rule:evenodd"
viewBox="0 0 1800000 1768151"
 xmlns:xlink="http://www.w3.org/1999/xlink">
 <defs>
  <style type="text/css">
   <![CDATA[
    .fil0 {fill:white;fill-rule:nonzero}
   ]]>
  </style>
 </defs>
 <g id="Слой_x0020_1">
  <metadata id="CorelCorpID_0Corel-Layer"/>
  <path class="fil0" d="M62361 639326c-72894,59937 -83371,167662 -23434,240528 59965,72922 167661,83371 240555,23434l620518 -511010 620518 511010c72894,59937 180646,49488 240555,-23434 59937,-72866 49460,-180619 -23434,-240528l-726766 -598504c-61831,-52804 -154481,-55312 -219434,-1895l-729078 600399zm0 825936c-72894,59937 -83371,167662 -23434,240528 59965,72921 167661,83371 240555,23462l620518 -511010 620518 511010c72894,59909 180646,49459 240555,-23462 59937,-72866 49460,-180619 -23434,-240528l-726766 -598505c-61831,-52775 -154481,-55311 -219434,-1894l-729078 600399z"/>
 </g>
</svg>
