<?xml version="1.0" encoding="UTF-8"?>
<!DOCTYPE svg PUBLIC "-//W3C//DTD SVG 1.1//EN" "http://www.w3.org/Graphics/SVG/1.1/DTD/svg11.dtd">
<!-- Creator: CorelDRAW X7 -->
<svg xmlns="http://www.w3.org/2000/svg" xml:space="preserve" width="0.555551in" height="0.555551in" version="1.1" style="shape-rendering:geometricPrecision; text-rendering:geometricPrecision; image-rendering:optimizeQuality; fill-rule:evenodd; clip-rule:evenodd"
viewBox="0 0 556 556"
 xmlns:xlink="http://www.w3.org/1999/xlink">
 <defs>
  <style type="text/css">
   <![CDATA[
    .fil0 {fill:#4AB3F0}
   ]]>
  </style>
 </defs>
 <g id="Слой_x0020_1">
  <metadata id="CorelCorpID_0Corel-Layer"/>
  <path class="fil0" d="M397 303c20,19 35,34 43,46 3,6 5,11 3,15 -1,5 -4,7 -9,7l-53 3c-8,0 -17,-4 -28,-14 -10,-10 -18,-18 -22,-24 -2,-4 -6,-6 -11,-7 -6,0 -9,3 -11,8l-2 21c0,5 -2,8 -5,10 -2,2 -5,3 -6,4 -2,0 -5,0 -10,1 -14,0 -26,0 -36,-2 -11,-2 -20,-6 -29,-12 -9,-6 -15,-11 -21,-16 -5,-5 -12,-13 -22,-23 -26,-38 -46,-70 -59,-98 -5,-11 -7,-20 -8,-27 2,-2 6,-4 12,-4 6,-1 15,-1 26,-1 11,1 18,1 20,1 6,-1 10,2 13,9 14,30 27,53 40,70 8,8 14,6 17,-4 1,0 1,-14 1,-40 1,-17 -6,-27 -20,-31 3,-9 15,-13 34,-13 5,0 11,0 18,1 7,0 11,0 11,0 16,0 24,7 24,20 0,1 0,5 -1,11 0,7 0,13 -1,18 0,6 0,12 0,18 0,6 1,11 2,16 2,4 4,7 7,8 3,-2 6,-4 8,-6 3,-2 6,-5 9,-10 3,-4 5,-7 7,-9 1,-2 4,-6 7,-12 3,-6 5,-10 5,-12 1,-1 3,-5 6,-12 3,-7 5,-10 5,-10l1 -3c2,-5 4,-7 5,-8 2,-1 5,-1 10,-1l50 0c6,0 10,0 11,0 1,0 3,2 5,4 4,5 0,15 -10,31 -11,16 -21,30 -31,40 -13,16 -15,28 -5,37zm-119 -270c-134,0 -243,109 -243,245 0,135 109,245 243,245 134,0 243,-110 243,-245 0,-136 -109,-245 -243,-245z"/>
 </g>
</svg>
