<?xml version="1.0" encoding="UTF-8"?>
<!DOCTYPE svg PUBLIC "-//W3C//DTD SVG 1.1//EN" "http://www.w3.org/Graphics/SVG/1.1/DTD/svg11.dtd">
<!-- Creator: CorelDRAW X7 -->
<svg xmlns="http://www.w3.org/2000/svg" xml:space="preserve" width="1.66666in" height="0.694441in" version="1.1" style="shape-rendering:geometricPrecision; text-rendering:geometricPrecision; image-rendering:optimizeQuality; fill-rule:evenodd; clip-rule:evenodd"
viewBox="0 0 1667 694"
 xmlns:xlink="http://www.w3.org/1999/xlink">
 <defs>
  <style type="text/css">
   <![CDATA[
    .str0 {stroke:#00A0E3;stroke-width:3}
    .fil3 {fill:#00A0E3}
    .fil4 {fill:#00A0E3}
    .fil1 {fill:#B0CB1F}
    .fil0 {fill:#E5097F}
    .fil2 {fill:#FFED00}
    .fil5 {fill:#00A0E3;fill-rule:nonzero}
   ]]>
  </style>
 </defs>
 <g id="Слой_x0020_1">
  <metadata id="CorelCorpID_0Corel-Layer"/>
  <path class="fil0" d="M611 255l87 86c5,4 5,11 0,15l-87 88c-4,4 -11,4 -15,0l-87 -87c-4,-4 -4,-11 0,-15l87 -87c4,-5 11,-5 15,0z"/>
  <path class="fil1" d="M392 37l163 159c7,8 7,20 0,28l-163 161c-8,7 -20,7 -28,0l-163 -159c-7,-8 -7,-20 0,-28l163 -161c8,-8 20,-8 28,0z"/>
  <path class="fil2" d="M383 151l56 55c3,2 3,7 0,9l-56 56c-3,3 -7,3 -10,0l-56 -55c-3,-3 -3,-7 0,-10l56 -55c3,-3 7,-3 10,0z"/>
  <path class="fil3" d="M469 390l87 87c4,4 4,11 0,15l-165 166c-4,4 -11,4 -15,0l-87 -87c-4,-4 -4,-11 0,-15l165 -166c4,-4 11,-4 15,0z"/>
  <path class="fil4" d="M166 250l308 307c4,5 4,11 0,16l-87 87c-4,4 -11,4 -15,0l-308 -307c-4,-5 -4,-11 0,-15l87 -88c4,-4 11,-4 15,0z"/>
  <path class="fil5 str0" d="M947 215c39,0 71,13 97,39 26,26 39,57 39,95 0,37 -13,68 -39,94 -26,26 -57,39 -95,39 -37,0 -69,-13 -95,-39 -26,-25 -39,-57 -39,-93 0,-25 6,-47 18,-68 12,-21 28,-37 48,-49 21,-12 43,-18 66,-18zm2 25c-19,0 -37,5 -54,15 -17,10 -30,23 -39,39 -10,17 -14,35 -14,56 0,30 10,55 31,76 21,21 46,31 76,31 19,0 37,-5 54,-14 17,-10 30,-23 39,-39 10,-17 14,-35 14,-55 0,-21 -4,-39 -14,-55 -9,-16 -22,-29 -39,-39 -17,-10 -35,-15 -54,-15zm390 236l-28 0 -84 -197 -85 197 -28 0 111 -254 5 0 109 254zm43 -254l50 0c20,0 36,2 47,7 10,5 19,12 25,22 6,10 10,21 10,33 0,11 -3,21 -9,31 -5,9 -13,16 -24,22 13,5 23,10 31,16 7,6 12,13 16,22 4,8 6,18 6,28 0,20 -7,37 -22,51 -15,14 -35,22 -60,22l-70 0 0 -254zm25 25l0 81 15 0c17,0 30,-2 38,-5 9,-3 15,-8 20,-16 5,-7 7,-14 7,-23 0,-12 -4,-21 -12,-27 -8,-7 -21,-10 -39,-10l-29 0zm0 106l0 98 31 0c19,0 33,-2 41,-6 9,-3 16,-9 21,-17 5,-7 8,-16 8,-25 0,-11 -4,-21 -11,-29 -8,-9 -18,-14 -31,-17 -8,-3 -23,-4 -45,-4l-14 0zm174 -131l25 0 0 254 -25 0 0 -254z"/>
 </g>
</svg>
